#VRML V2.0 utf8
# HOLYIOT-26001-A, nRF54L15: 10,00 x 12,50 x 1,80 mm.
# Cotas do desenho mecanico do anuncio; CORES lidas da foto do
# produto (placa preta, blindagem escura, antena ceramica no topo).
# Corpo desenhado aqui: a Holyiot nao publica STEP.
Shape {
  appearance Appearance { material Material { diffuseColor 0.07 0.07 0.08 } }
  geometry IndexedFaceSet {
    coord Coordinate { point [
      -1.9685 -2.4606 0.0000,
      1.9685 -2.4606 0.0000,
      1.9685 2.4606 0.0000,
      -1.9685 2.4606 0.0000,
      -1.9685 -2.4606 0.3150,
      1.9685 -2.4606 0.3150,
      1.9685 2.4606 0.3150,
      -1.9685 2.4606 0.3150 ] }
    coordIndex [
      0 3 2 1 -1,
      4 5 6 7 -1,
      0 1 5 4 -1,
      1 2 6 5 -1,
      2 3 7 6 -1,
      3 0 4 7 -1 ]
  }
}
Shape {
  appearance Appearance { material Material { diffuseColor 0.3 0.31 0.33 } }
  geometry IndexedFaceSet {
    coord Coordinate { point [
      -1.4567 -0.8858 0.3150,
      1.4567 -0.8858 0.3150,
      1.4567 2.2244 0.3150,
      -1.4567 2.2244 0.3150,
      -1.4567 -0.8858 0.9449,
      1.4567 -0.8858 0.9449,
      1.4567 2.2244 0.9449,
      -1.4567 2.2244 0.9449 ] }
    coordIndex [
      0 3 2 1 -1,
      4 5 6 7 -1,
      0 1 5 4 -1,
      1 2 6 5 -1,
      2 3 7 6 -1,
      3 0 4 7 -1 ]
  }
}
Shape {
  appearance Appearance { material Material { diffuseColor 0.9 0.88 0.82 } }
  geometry IndexedFaceSet {
    coord Coordinate { point [
      -1.2992 -2.1850 0.3150,
      1.2992 -2.1850 0.3150,
      1.2992 -1.6732 0.3150,
      -1.2992 -1.6732 0.3150,
      -1.2992 -2.1850 0.5512,
      1.2992 -2.1850 0.5512,
      1.2992 -1.6732 0.5512,
      -1.2992 -1.6732 0.5512 ] }
    coordIndex [
      0 3 2 1 -1,
      4 5 6 7 -1,
      0 1 5 4 -1,
      1 2 6 5 -1,
      2 3 7 6 -1,
      3 0 4 7 -1 ]
  }
}
Shape {
  appearance Appearance { material Material { diffuseColor 0.72 0.73 0.75 } }
  geometry IndexedFaceSet {
    coord Coordinate { point [
      -1.2992 -2.1850 0.3150,
      -1.1024 -2.1850 0.3150,
      -1.1024 -1.6732 0.3150,
      -1.2992 -1.6732 0.3150,
      -1.2992 -2.1850 0.5591,
      -1.1024 -2.1850 0.5591,
      -1.1024 -1.6732 0.5591,
      -1.2992 -1.6732 0.5591 ] }
    coordIndex [
      0 3 2 1 -1,
      4 5 6 7 -1,
      0 1 5 4 -1,
      1 2 6 5 -1,
      2 3 7 6 -1,
      3 0 4 7 -1 ]
  }
}
Shape {
  appearance Appearance { material Material { diffuseColor 0.72 0.73 0.75 } }
  geometry IndexedFaceSet {
    coord Coordinate { point [
      1.1024 -2.1850 0.3150,
      1.2992 -2.1850 0.3150,
      1.2992 -1.6732 0.3150,
      1.1024 -1.6732 0.3150,
      1.1024 -2.1850 0.5591,
      1.2992 -2.1850 0.5591,
      1.2992 -1.6732 0.5591,
      1.1024 -1.6732 0.5591 ] }
    coordIndex [
      0 3 2 1 -1,
      4 5 6 7 -1,
      0 1 5 4 -1,
      1 2 6 5 -1,
      2 3 7 6 -1,
      3 0 4 7 -1 ]
  }
}
Shape {
  appearance Appearance { material Material { diffuseColor 0.8 0.68 0.32 } }
  geometry IndexedFaceSet {
    coord Coordinate { point [
      -1.9685 -1.0827 -0.0118,
      -1.5748 -1.0827 -0.0118,
      -1.5748 -0.8465 -0.0118,
      -1.9685 -0.8465 -0.0118,
      -1.9685 -1.0827 0.0000,
      -1.5748 -1.0827 0.0000,
      -1.5748 -0.8465 0.0000,
      -1.9685 -0.8465 0.0000 ] }
    coordIndex [
      0 3 2 1 -1,
      4 5 6 7 -1,
      0 1 5 4 -1,
      1 2 6 5 -1,
      2 3 7 6 -1,
      3 0 4 7 -1 ]
  }
}
Shape {
  appearance Appearance { material Material { diffuseColor 0.8 0.68 0.32 } }
  geometry IndexedFaceSet {
    coord Coordinate { point [
      1.5748 -1.0827 -0.0118,
      1.9685 -1.0827 -0.0118,
      1.9685 -0.8465 -0.0118,
      1.5748 -0.8465 -0.0118,
      1.5748 -1.0827 0.0000,
      1.9685 -1.0827 0.0000,
      1.9685 -0.8465 0.0000,
      1.5748 -0.8465 0.0000 ] }
    coordIndex [
      0 3 2 1 -1,
      4 5 6 7 -1,
      0 1 5 4 -1,
      1 2 6 5 -1,
      2 3 7 6 -1,
      3 0 4 7 -1 ]
  }
}
Shape {
  appearance Appearance { material Material { diffuseColor 0.8 0.68 0.32 } }
  geometry IndexedFaceSet {
    coord Coordinate { point [
      -1.1811 -1.1220 -0.0118,
      -0.7874 -1.1220 -0.0118,
      -0.7874 -0.8071 -0.0118,
      -1.1811 -0.8071 -0.0118,
      -1.1811 -1.1220 0.0000,
      -0.7874 -1.1220 0.0000,
      -0.7874 -0.8071 0.0000,
      -1.1811 -0.8071 0.0000 ] }
    coordIndex [
      0 3 2 1 -1,
      4 5 6 7 -1,
      0 1 5 4 -1,
      1 2 6 5 -1,
      2 3 7 6 -1,
      3 0 4 7 -1 ]
  }
}
Shape {
  appearance Appearance { material Material { diffuseColor 0.8 0.68 0.32 } }
  geometry IndexedFaceSet {
    coord Coordinate { point [
      0.7874 -1.1220 -0.0118,
      1.1811 -1.1220 -0.0118,
      1.1811 -0.8071 -0.0118,
      0.7874 -0.8071 -0.0118,
      0.7874 -1.1220 0.0000,
      1.1811 -1.1220 0.0000,
      1.1811 -0.8071 0.0000,
      0.7874 -0.8071 0.0000 ] }
    coordIndex [
      0 3 2 1 -1,
      4 5 6 7 -1,
      0 1 5 4 -1,
      1 2 6 5 -1,
      2 3 7 6 -1,
      3 0 4 7 -1 ]
  }
}
Shape {
  appearance Appearance { material Material { diffuseColor 0.8 0.68 0.32 } }
  geometry IndexedFaceSet {
    coord Coordinate { point [
      -1.9685 -0.6102 -0.0118,
      -1.5748 -0.6102 -0.0118,
      -1.5748 -0.3740 -0.0118,
      -1.9685 -0.3740 -0.0118,
      -1.9685 -0.6102 0.0000,
      -1.5748 -0.6102 0.0000,
      -1.5748 -0.3740 0.0000,
      -1.9685 -0.3740 0.0000 ] }
    coordIndex [
      0 3 2 1 -1,
      4 5 6 7 -1,
      0 1 5 4 -1,
      1 2 6 5 -1,
      2 3 7 6 -1,
      3 0 4 7 -1 ]
  }
}
Shape {
  appearance Appearance { material Material { diffuseColor 0.8 0.68 0.32 } }
  geometry IndexedFaceSet {
    coord Coordinate { point [
      1.5748 -0.6102 -0.0118,
      1.9685 -0.6102 -0.0118,
      1.9685 -0.3740 -0.0118,
      1.5748 -0.3740 -0.0118,
      1.5748 -0.6102 0.0000,
      1.9685 -0.6102 0.0000,
      1.9685 -0.3740 0.0000,
      1.5748 -0.3740 0.0000 ] }
    coordIndex [
      0 3 2 1 -1,
      4 5 6 7 -1,
      0 1 5 4 -1,
      1 2 6 5 -1,
      2 3 7 6 -1,
      3 0 4 7 -1 ]
  }
}
Shape {
  appearance Appearance { material Material { diffuseColor 0.8 0.68 0.32 } }
  geometry IndexedFaceSet {
    coord Coordinate { point [
      -1.1811 -0.6496 -0.0118,
      -0.7874 -0.6496 -0.0118,
      -0.7874 -0.3346 -0.0118,
      -1.1811 -0.3346 -0.0118,
      -1.1811 -0.6496 0.0000,
      -0.7874 -0.6496 0.0000,
      -0.7874 -0.3346 0.0000,
      -1.1811 -0.3346 0.0000 ] }
    coordIndex [
      0 3 2 1 -1,
      4 5 6 7 -1,
      0 1 5 4 -1,
      1 2 6 5 -1,
      2 3 7 6 -1,
      3 0 4 7 -1 ]
  }
}
Shape {
  appearance Appearance { material Material { diffuseColor 0.8 0.68 0.32 } }
  geometry IndexedFaceSet {
    coord Coordinate { point [
      0.7874 -0.6496 -0.0118,
      1.1811 -0.6496 -0.0118,
      1.1811 -0.3346 -0.0118,
      0.7874 -0.3346 -0.0118,
      0.7874 -0.6496 0.0000,
      1.1811 -0.6496 0.0000,
      1.1811 -0.3346 0.0000,
      0.7874 -0.3346 0.0000 ] }
    coordIndex [
      0 3 2 1 -1,
      4 5 6 7 -1,
      0 1 5 4 -1,
      1 2 6 5 -1,
      2 3 7 6 -1,
      3 0 4 7 -1 ]
  }
}
Shape {
  appearance Appearance { material Material { diffuseColor 0.8 0.68 0.32 } }
  geometry IndexedFaceSet {
    coord Coordinate { point [
      -1.9685 -0.1378 -0.0118,
      -1.5748 -0.1378 -0.0118,
      -1.5748 0.0984 -0.0118,
      -1.9685 0.0984 -0.0118,
      -1.9685 -0.1378 0.0000,
      -1.5748 -0.1378 0.0000,
      -1.5748 0.0984 0.0000,
      -1.9685 0.0984 0.0000 ] }
    coordIndex [
      0 3 2 1 -1,
      4 5 6 7 -1,
      0 1 5 4 -1,
      1 2 6 5 -1,
      2 3 7 6 -1,
      3 0 4 7 -1 ]
  }
}
Shape {
  appearance Appearance { material Material { diffuseColor 0.8 0.68 0.32 } }
  geometry IndexedFaceSet {
    coord Coordinate { point [
      1.5748 -0.1378 -0.0118,
      1.9685 -0.1378 -0.0118,
      1.9685 0.0984 -0.0118,
      1.5748 0.0984 -0.0118,
      1.5748 -0.1378 0.0000,
      1.9685 -0.1378 0.0000,
      1.9685 0.0984 0.0000,
      1.5748 0.0984 0.0000 ] }
    coordIndex [
      0 3 2 1 -1,
      4 5 6 7 -1,
      0 1 5 4 -1,
      1 2 6 5 -1,
      2 3 7 6 -1,
      3 0 4 7 -1 ]
  }
}
Shape {
  appearance Appearance { material Material { diffuseColor 0.8 0.68 0.32 } }
  geometry IndexedFaceSet {
    coord Coordinate { point [
      -1.1811 -0.1772 -0.0118,
      -0.7874 -0.1772 -0.0118,
      -0.7874 0.1378 -0.0118,
      -1.1811 0.1378 -0.0118,
      -1.1811 -0.1772 0.0000,
      -0.7874 -0.1772 0.0000,
      -0.7874 0.1378 0.0000,
      -1.1811 0.1378 0.0000 ] }
    coordIndex [
      0 3 2 1 -1,
      4 5 6 7 -1,
      0 1 5 4 -1,
      1 2 6 5 -1,
      2 3 7 6 -1,
      3 0 4 7 -1 ]
  }
}
Shape {
  appearance Appearance { material Material { diffuseColor 0.8 0.68 0.32 } }
  geometry IndexedFaceSet {
    coord Coordinate { point [
      0.7874 -0.1772 -0.0118,
      1.1811 -0.1772 -0.0118,
      1.1811 0.1378 -0.0118,
      0.7874 0.1378 -0.0118,
      0.7874 -0.1772 0.0000,
      1.1811 -0.1772 0.0000,
      1.1811 0.1378 0.0000,
      0.7874 0.1378 0.0000 ] }
    coordIndex [
      0 3 2 1 -1,
      4 5 6 7 -1,
      0 1 5 4 -1,
      1 2 6 5 -1,
      2 3 7 6 -1,
      3 0 4 7 -1 ]
  }
}
Shape {
  appearance Appearance { material Material { diffuseColor 0.8 0.68 0.32 } }
  geometry IndexedFaceSet {
    coord Coordinate { point [
      -1.9685 0.3346 -0.0118,
      -1.5748 0.3346 -0.0118,
      -1.5748 0.5709 -0.0118,
      -1.9685 0.5709 -0.0118,
      -1.9685 0.3346 0.0000,
      -1.5748 0.3346 0.0000,
      -1.5748 0.5709 0.0000,
      -1.9685 0.5709 0.0000 ] }
    coordIndex [
      0 3 2 1 -1,
      4 5 6 7 -1,
      0 1 5 4 -1,
      1 2 6 5 -1,
      2 3 7 6 -1,
      3 0 4 7 -1 ]
  }
}
Shape {
  appearance Appearance { material Material { diffuseColor 0.8 0.68 0.32 } }
  geometry IndexedFaceSet {
    coord Coordinate { point [
      1.5748 0.3346 -0.0118,
      1.9685 0.3346 -0.0118,
      1.9685 0.5709 -0.0118,
      1.5748 0.5709 -0.0118,
      1.5748 0.3346 0.0000,
      1.9685 0.3346 0.0000,
      1.9685 0.5709 0.0000,
      1.5748 0.5709 0.0000 ] }
    coordIndex [
      0 3 2 1 -1,
      4 5 6 7 -1,
      0 1 5 4 -1,
      1 2 6 5 -1,
      2 3 7 6 -1,
      3 0 4 7 -1 ]
  }
}
Shape {
  appearance Appearance { material Material { diffuseColor 0.8 0.68 0.32 } }
  geometry IndexedFaceSet {
    coord Coordinate { point [
      -1.1811 0.2953 -0.0118,
      -0.7874 0.2953 -0.0118,
      -0.7874 0.6102 -0.0118,
      -1.1811 0.6102 -0.0118,
      -1.1811 0.2953 0.0000,
      -0.7874 0.2953 0.0000,
      -0.7874 0.6102 0.0000,
      -1.1811 0.6102 0.0000 ] }
    coordIndex [
      0 3 2 1 -1,
      4 5 6 7 -1,
      0 1 5 4 -1,
      1 2 6 5 -1,
      2 3 7 6 -1,
      3 0 4 7 -1 ]
  }
}
Shape {
  appearance Appearance { material Material { diffuseColor 0.8 0.68 0.32 } }
  geometry IndexedFaceSet {
    coord Coordinate { point [
      0.7874 0.2953 -0.0118,
      1.1811 0.2953 -0.0118,
      1.1811 0.6102 -0.0118,
      0.7874 0.6102 -0.0118,
      0.7874 0.2953 0.0000,
      1.1811 0.2953 0.0000,
      1.1811 0.6102 0.0000,
      0.7874 0.6102 0.0000 ] }
    coordIndex [
      0 3 2 1 -1,
      4 5 6 7 -1,
      0 1 5 4 -1,
      1 2 6 5 -1,
      2 3 7 6 -1,
      3 0 4 7 -1 ]
  }
}
Shape {
  appearance Appearance { material Material { diffuseColor 0.8 0.68 0.32 } }
  geometry IndexedFaceSet {
    coord Coordinate { point [
      -1.9685 0.8071 -0.0118,
      -1.5748 0.8071 -0.0118,
      -1.5748 1.0433 -0.0118,
      -1.9685 1.0433 -0.0118,
      -1.9685 0.8071 0.0000,
      -1.5748 0.8071 0.0000,
      -1.5748 1.0433 0.0000,
      -1.9685 1.0433 0.0000 ] }
    coordIndex [
      0 3 2 1 -1,
      4 5 6 7 -1,
      0 1 5 4 -1,
      1 2 6 5 -1,
      2 3 7 6 -1,
      3 0 4 7 -1 ]
  }
}
Shape {
  appearance Appearance { material Material { diffuseColor 0.8 0.68 0.32 } }
  geometry IndexedFaceSet {
    coord Coordinate { point [
      1.5748 0.8071 -0.0118,
      1.9685 0.8071 -0.0118,
      1.9685 1.0433 -0.0118,
      1.5748 1.0433 -0.0118,
      1.5748 0.8071 0.0000,
      1.9685 0.8071 0.0000,
      1.9685 1.0433 0.0000,
      1.5748 1.0433 0.0000 ] }
    coordIndex [
      0 3 2 1 -1,
      4 5 6 7 -1,
      0 1 5 4 -1,
      1 2 6 5 -1,
      2 3 7 6 -1,
      3 0 4 7 -1 ]
  }
}
Shape {
  appearance Appearance { material Material { diffuseColor 0.8 0.68 0.32 } }
  geometry IndexedFaceSet {
    coord Coordinate { point [
      -1.1811 0.7677 -0.0118,
      -0.7874 0.7677 -0.0118,
      -0.7874 1.0827 -0.0118,
      -1.1811 1.0827 -0.0118,
      -1.1811 0.7677 0.0000,
      -0.7874 0.7677 0.0000,
      -0.7874 1.0827 0.0000,
      -1.1811 1.0827 0.0000 ] }
    coordIndex [
      0 3 2 1 -1,
      4 5 6 7 -1,
      0 1 5 4 -1,
      1 2 6 5 -1,
      2 3 7 6 -1,
      3 0 4 7 -1 ]
  }
}
Shape {
  appearance Appearance { material Material { diffuseColor 0.8 0.68 0.32 } }
  geometry IndexedFaceSet {
    coord Coordinate { point [
      0.7874 0.7677 -0.0118,
      1.1811 0.7677 -0.0118,
      1.1811 1.0827 -0.0118,
      0.7874 1.0827 -0.0118,
      0.7874 0.7677 0.0000,
      1.1811 0.7677 0.0000,
      1.1811 1.0827 0.0000,
      0.7874 1.0827 0.0000 ] }
    coordIndex [
      0 3 2 1 -1,
      4 5 6 7 -1,
      0 1 5 4 -1,
      1 2 6 5 -1,
      2 3 7 6 -1,
      3 0 4 7 -1 ]
  }
}
Shape {
  appearance Appearance { material Material { diffuseColor 0.8 0.68 0.32 } }
  geometry IndexedFaceSet {
    coord Coordinate { point [
      -1.9685 1.2795 -0.0118,
      -1.5748 1.2795 -0.0118,
      -1.5748 1.5157 -0.0118,
      -1.9685 1.5157 -0.0118,
      -1.9685 1.2795 0.0000,
      -1.5748 1.2795 0.0000,
      -1.5748 1.5157 0.0000,
      -1.9685 1.5157 0.0000 ] }
    coordIndex [
      0 3 2 1 -1,
      4 5 6 7 -1,
      0 1 5 4 -1,
      1 2 6 5 -1,
      2 3 7 6 -1,
      3 0 4 7 -1 ]
  }
}
Shape {
  appearance Appearance { material Material { diffuseColor 0.8 0.68 0.32 } }
  geometry IndexedFaceSet {
    coord Coordinate { point [
      1.5748 1.2795 -0.0118,
      1.9685 1.2795 -0.0118,
      1.9685 1.5157 -0.0118,
      1.5748 1.5157 -0.0118,
      1.5748 1.2795 0.0000,
      1.9685 1.2795 0.0000,
      1.9685 1.5157 0.0000,
      1.5748 1.5157 0.0000 ] }
    coordIndex [
      0 3 2 1 -1,
      4 5 6 7 -1,
      0 1 5 4 -1,
      1 2 6 5 -1,
      2 3 7 6 -1,
      3 0 4 7 -1 ]
  }
}
Shape {
  appearance Appearance { material Material { diffuseColor 0.8 0.68 0.32 } }
  geometry IndexedFaceSet {
    coord Coordinate { point [
      -1.1811 1.2402 -0.0118,
      -0.7874 1.2402 -0.0118,
      -0.7874 1.5551 -0.0118,
      -1.1811 1.5551 -0.0118,
      -1.1811 1.2402 0.0000,
      -0.7874 1.2402 0.0000,
      -0.7874 1.5551 0.0000,
      -1.1811 1.5551 0.0000 ] }
    coordIndex [
      0 3 2 1 -1,
      4 5 6 7 -1,
      0 1 5 4 -1,
      1 2 6 5 -1,
      2 3 7 6 -1,
      3 0 4 7 -1 ]
  }
}
Shape {
  appearance Appearance { material Material { diffuseColor 0.8 0.68 0.32 } }
  geometry IndexedFaceSet {
    coord Coordinate { point [
      0.7874 1.2402 -0.0118,
      1.1811 1.2402 -0.0118,
      1.1811 1.5551 -0.0118,
      0.7874 1.5551 -0.0118,
      0.7874 1.2402 0.0000,
      1.1811 1.2402 0.0000,
      1.1811 1.5551 0.0000,
      0.7874 1.5551 0.0000 ] }
    coordIndex [
      0 3 2 1 -1,
      4 5 6 7 -1,
      0 1 5 4 -1,
      1 2 6 5 -1,
      2 3 7 6 -1,
      3 0 4 7 -1 ]
  }
}
Shape {
  appearance Appearance { material Material { diffuseColor 0.8 0.68 0.32 } }
  geometry IndexedFaceSet {
    coord Coordinate { point [
      -1.9685 1.7520 -0.0118,
      -1.5748 1.7520 -0.0118,
      -1.5748 1.9882 -0.0118,
      -1.9685 1.9882 -0.0118,
      -1.9685 1.7520 0.0000,
      -1.5748 1.7520 0.0000,
      -1.5748 1.9882 0.0000,
      -1.9685 1.9882 0.0000 ] }
    coordIndex [
      0 3 2 1 -1,
      4 5 6 7 -1,
      0 1 5 4 -1,
      1 2 6 5 -1,
      2 3 7 6 -1,
      3 0 4 7 -1 ]
  }
}
Shape {
  appearance Appearance { material Material { diffuseColor 0.8 0.68 0.32 } }
  geometry IndexedFaceSet {
    coord Coordinate { point [
      1.5748 1.7520 -0.0118,
      1.9685 1.7520 -0.0118,
      1.9685 1.9882 -0.0118,
      1.5748 1.9882 -0.0118,
      1.5748 1.7520 0.0000,
      1.9685 1.7520 0.0000,
      1.9685 1.9882 0.0000,
      1.5748 1.9882 0.0000 ] }
    coordIndex [
      0 3 2 1 -1,
      4 5 6 7 -1,
      0 1 5 4 -1,
      1 2 6 5 -1,
      2 3 7 6 -1,
      3 0 4 7 -1 ]
  }
}
Shape {
  appearance Appearance { material Material { diffuseColor 0.8 0.68 0.32 } }
  geometry IndexedFaceSet {
    coord Coordinate { point [
      -1.1811 1.7126 -0.0118,
      -0.7874 1.7126 -0.0118,
      -0.7874 2.0276 -0.0118,
      -1.1811 2.0276 -0.0118,
      -1.1811 1.7126 0.0000,
      -0.7874 1.7126 0.0000,
      -0.7874 2.0276 0.0000,
      -1.1811 2.0276 0.0000 ] }
    coordIndex [
      0 3 2 1 -1,
      4 5 6 7 -1,
      0 1 5 4 -1,
      1 2 6 5 -1,
      2 3 7 6 -1,
      3 0 4 7 -1 ]
  }
}
Shape {
  appearance Appearance { material Material { diffuseColor 0.8 0.68 0.32 } }
  geometry IndexedFaceSet {
    coord Coordinate { point [
      0.7874 1.7126 -0.0118,
      1.1811 1.7126 -0.0118,
      1.1811 2.0276 -0.0118,
      0.7874 2.0276 -0.0118,
      0.7874 1.7126 0.0000,
      1.1811 1.7126 0.0000,
      1.1811 2.0276 0.0000,
      0.7874 2.0276 0.0000 ] }
    coordIndex [
      0 3 2 1 -1,
      4 5 6 7 -1,
      0 1 5 4 -1,
      1 2 6 5 -1,
      2 3 7 6 -1,
      3 0 4 7 -1 ]
  }
}
Shape {
  appearance Appearance { material Material { diffuseColor 0.8 0.68 0.32 } }
  geometry IndexedFaceSet {
    coord Coordinate { point [
      -1.7717 2.2638 -0.0118,
      -1.5354 2.2638 -0.0118,
      -1.5354 2.4606 -0.0118,
      -1.7717 2.4606 -0.0118,
      -1.7717 2.2638 0.0000,
      -1.5354 2.2638 0.0000,
      -1.5354 2.4606 0.0000,
      -1.7717 2.4606 0.0000 ] }
    coordIndex [
      0 3 2 1 -1,
      4 5 6 7 -1,
      0 1 5 4 -1,
      1 2 6 5 -1,
      2 3 7 6 -1,
      3 0 4 7 -1 ]
  }
}
Shape {
  appearance Appearance { material Material { diffuseColor 0.8 0.68 0.32 } }
  geometry IndexedFaceSet {
    coord Coordinate { point [
      -1.2992 2.2638 -0.0118,
      -1.0630 2.2638 -0.0118,
      -1.0630 2.4606 -0.0118,
      -1.2992 2.4606 -0.0118,
      -1.2992 2.2638 0.0000,
      -1.0630 2.2638 0.0000,
      -1.0630 2.4606 0.0000,
      -1.2992 2.4606 0.0000 ] }
    coordIndex [
      0 3 2 1 -1,
      4 5 6 7 -1,
      0 1 5 4 -1,
      1 2 6 5 -1,
      2 3 7 6 -1,
      3 0 4 7 -1 ]
  }
}
Shape {
  appearance Appearance { material Material { diffuseColor 0.8 0.68 0.32 } }
  geometry IndexedFaceSet {
    coord Coordinate { point [
      -0.8268 2.2638 -0.0118,
      -0.5906 2.2638 -0.0118,
      -0.5906 2.4606 -0.0118,
      -0.8268 2.4606 -0.0118,
      -0.8268 2.2638 0.0000,
      -0.5906 2.2638 0.0000,
      -0.5906 2.4606 0.0000,
      -0.8268 2.4606 0.0000 ] }
    coordIndex [
      0 3 2 1 -1,
      4 5 6 7 -1,
      0 1 5 4 -1,
      1 2 6 5 -1,
      2 3 7 6 -1,
      3 0 4 7 -1 ]
  }
}
Shape {
  appearance Appearance { material Material { diffuseColor 0.8 0.68 0.32 } }
  geometry IndexedFaceSet {
    coord Coordinate { point [
      -0.3543 2.2638 -0.0118,
      -0.1181 2.2638 -0.0118,
      -0.1181 2.4606 -0.0118,
      -0.3543 2.4606 -0.0118,
      -0.3543 2.2638 0.0000,
      -0.1181 2.2638 0.0000,
      -0.1181 2.4606 0.0000,
      -0.3543 2.4606 0.0000 ] }
    coordIndex [
      0 3 2 1 -1,
      4 5 6 7 -1,
      0 1 5 4 -1,
      1 2 6 5 -1,
      2 3 7 6 -1,
      3 0 4 7 -1 ]
  }
}
Shape {
  appearance Appearance { material Material { diffuseColor 0.8 0.68 0.32 } }
  geometry IndexedFaceSet {
    coord Coordinate { point [
      0.1181 2.2638 -0.0118,
      0.3543 2.2638 -0.0118,
      0.3543 2.4606 -0.0118,
      0.1181 2.4606 -0.0118,
      0.1181 2.2638 0.0000,
      0.3543 2.2638 0.0000,
      0.3543 2.4606 0.0000,
      0.1181 2.4606 0.0000 ] }
    coordIndex [
      0 3 2 1 -1,
      4 5 6 7 -1,
      0 1 5 4 -1,
      1 2 6 5 -1,
      2 3 7 6 -1,
      3 0 4 7 -1 ]
  }
}
Shape {
  appearance Appearance { material Material { diffuseColor 0.8 0.68 0.32 } }
  geometry IndexedFaceSet {
    coord Coordinate { point [
      0.5906 2.2638 -0.0118,
      0.8268 2.2638 -0.0118,
      0.8268 2.4606 -0.0118,
      0.5906 2.4606 -0.0118,
      0.5906 2.2638 0.0000,
      0.8268 2.2638 0.0000,
      0.8268 2.4606 0.0000,
      0.5906 2.4606 0.0000 ] }
    coordIndex [
      0 3 2 1 -1,
      4 5 6 7 -1,
      0 1 5 4 -1,
      1 2 6 5 -1,
      2 3 7 6 -1,
      3 0 4 7 -1 ]
  }
}
Shape {
  appearance Appearance { material Material { diffuseColor 0.8 0.68 0.32 } }
  geometry IndexedFaceSet {
    coord Coordinate { point [
      1.0630 2.2638 -0.0118,
      1.2992 2.2638 -0.0118,
      1.2992 2.4606 -0.0118,
      1.0630 2.4606 -0.0118,
      1.0630 2.2638 0.0000,
      1.2992 2.2638 0.0000,
      1.2992 2.4606 0.0000,
      1.0630 2.4606 0.0000 ] }
    coordIndex [
      0 3 2 1 -1,
      4 5 6 7 -1,
      0 1 5 4 -1,
      1 2 6 5 -1,
      2 3 7 6 -1,
      3 0 4 7 -1 ]
  }
}
Shape {
  appearance Appearance { material Material { diffuseColor 0.8 0.68 0.32 } }
  geometry IndexedFaceSet {
    coord Coordinate { point [
      1.5354 2.2638 -0.0118,
      1.7717 2.2638 -0.0118,
      1.7717 2.4606 -0.0118,
      1.5354 2.4606 -0.0118,
      1.5354 2.2638 0.0000,
      1.7717 2.2638 0.0000,
      1.7717 2.4606 0.0000,
      1.5354 2.4606 0.0000 ] }
    coordIndex [
      0 3 2 1 -1,
      4 5 6 7 -1,
      0 1 5 4 -1,
      1 2 6 5 -1,
      2 3 7 6 -1,
      3 0 4 7 -1 ]
  }
}
