#VRML V2.0 utf8
# JST SM02B-SRSS-TB: serie SH, 1,0 mm, 2 vias, entrada LATERAL, 4,00 x 4,25 x 2,90; a boca abre em +Y
Shape {
  appearance Appearance { material Material { diffuseColor 0.93 0.93 0.9 } }
  geometry IndexedFaceSet {
    coord Coordinate { point [
      -0.7480 -0.7972 0.0000,
      0.7480 -0.7972 0.0000,
      0.7480 -0.6201 0.0000,
      -0.7480 -0.6201 0.0000,
      -0.7480 -0.7972 1.1417,
      0.7480 -0.7972 1.1417,
      0.7480 -0.6201 1.1417,
      -0.7480 -0.6201 1.1417 ] }
    coordIndex [
      0 3 2 1 -1,
      4 5 6 7 -1,
      0 1 5 4 -1,
      1 2 6 5 -1,
      2 3 7 6 -1,
      3 0 4 7 -1 ]
  }
}
Shape {
  appearance Appearance { material Material { diffuseColor 0.93 0.93 0.9 } }
  geometry IndexedFaceSet {
    coord Coordinate { point [
      -0.7480 -0.7972 0.0000,
      -0.5709 -0.7972 0.0000,
      -0.5709 0.7972 0.0000,
      -0.7480 0.7972 0.0000,
      -0.7480 -0.7972 1.1417,
      -0.5709 -0.7972 1.1417,
      -0.5709 0.7972 1.1417,
      -0.7480 0.7972 1.1417 ] }
    coordIndex [
      0 3 2 1 -1,
      4 5 6 7 -1,
      0 1 5 4 -1,
      1 2 6 5 -1,
      2 3 7 6 -1,
      3 0 4 7 -1 ]
  }
}
Shape {
  appearance Appearance { material Material { diffuseColor 0.93 0.93 0.9 } }
  geometry IndexedFaceSet {
    coord Coordinate { point [
      0.5709 -0.7972 0.0000,
      0.7480 -0.7972 0.0000,
      0.7480 0.7972 0.0000,
      0.5709 0.7972 0.0000,
      0.5709 -0.7972 1.1417,
      0.7480 -0.7972 1.1417,
      0.7480 0.7972 1.1417,
      0.5709 0.7972 1.1417 ] }
    coordIndex [
      0 3 2 1 -1,
      4 5 6 7 -1,
      0 1 5 4 -1,
      1 2 6 5 -1,
      2 3 7 6 -1,
      3 0 4 7 -1 ]
  }
}
Shape {
  appearance Appearance { material Material { diffuseColor 0.93 0.93 0.9 } }
  geometry IndexedFaceSet {
    coord Coordinate { point [
      -0.7480 -0.7972 0.0000,
      0.7480 -0.7972 0.0000,
      0.7480 0.7972 0.0000,
      -0.7480 0.7972 0.0000,
      -0.7480 -0.7972 0.1378,
      0.7480 -0.7972 0.1378,
      0.7480 0.7972 0.1378,
      -0.7480 0.7972 0.1378 ] }
    coordIndex [
      0 3 2 1 -1,
      4 5 6 7 -1,
      0 1 5 4 -1,
      1 2 6 5 -1,
      2 3 7 6 -1,
      3 0 4 7 -1 ]
  }
}
Shape {
  appearance Appearance { material Material { diffuseColor 0.93 0.93 0.9 } }
  geometry IndexedFaceSet {
    coord Coordinate { point [
      -0.7480 -0.7972 1.0039,
      0.7480 -0.7972 1.0039,
      0.7480 0.7972 1.0039,
      -0.7480 0.7972 1.0039,
      -0.7480 -0.7972 1.1417,
      0.7480 -0.7972 1.1417,
      0.7480 0.7972 1.1417,
      -0.7480 0.7972 1.1417 ] }
    coordIndex [
      0 3 2 1 -1,
      4 5 6 7 -1,
      0 1 5 4 -1,
      1 2 6 5 -1,
      2 3 7 6 -1,
      3 0 4 7 -1 ]
  }
}
Shape {
  appearance Appearance { material Material { diffuseColor 0.83 0.69 0.22 } }
  geometry IndexedFaceSet {
    coord Coordinate { point [
      -0.2559 -0.6201 0.1378,
      -0.1378 -0.6201 0.1378,
      -0.1378 0.6791 0.1378,
      -0.2559 0.6791 0.1378,
      -0.2559 -0.6201 0.1850,
      -0.1378 -0.6201 0.1850,
      -0.1378 0.6791 0.1850,
      -0.2559 0.6791 0.1850 ] }
    coordIndex [
      0 3 2 1 -1,
      4 5 6 7 -1,
      0 1 5 4 -1,
      1 2 6 5 -1,
      2 3 7 6 -1,
      3 0 4 7 -1 ]
  }
}
Shape {
  appearance Appearance { material Material { diffuseColor 0.83 0.69 0.22 } }
  geometry IndexedFaceSet {
    coord Coordinate { point [
      0.1378 -0.6201 0.1378,
      0.2559 -0.6201 0.1378,
      0.2559 0.6791 0.1378,
      0.1378 0.6791 0.1378,
      0.1378 -0.6201 0.1850,
      0.2559 -0.6201 0.1850,
      0.2559 0.6791 0.1850,
      0.1378 0.6791 0.1850 ] }
    coordIndex [
      0 3 2 1 -1,
      4 5 6 7 -1,
      0 1 5 4 -1,
      1 2 6 5 -1,
      2 3 7 6 -1,
      3 0 4 7 -1 ]
  }
}
Shape {
  appearance Appearance { material Material { diffuseColor 0.74 0.75 0.77 } }
  geometry IndexedFaceSet {
    coord Coordinate { point [
      -0.8071 -0.9350 0.0000,
      -0.6102 -0.9350 0.0000,
      -0.6102 -0.6201 0.0000,
      -0.8071 -0.6201 0.0000,
      -0.8071 -0.9350 0.0394,
      -0.6102 -0.9350 0.0394,
      -0.6102 -0.6201 0.0394,
      -0.8071 -0.6201 0.0394 ] }
    coordIndex [
      0 3 2 1 -1,
      4 5 6 7 -1,
      0 1 5 4 -1,
      1 2 6 5 -1,
      2 3 7 6 -1,
      3 0 4 7 -1 ]
  }
}
Shape {
  appearance Appearance { material Material { diffuseColor 0.74 0.75 0.77 } }
  geometry IndexedFaceSet {
    coord Coordinate { point [
      0.6102 -0.9350 0.0000,
      0.8071 -0.9350 0.0000,
      0.8071 -0.6201 0.0000,
      0.6102 -0.6201 0.0000,
      0.6102 -0.9350 0.0394,
      0.8071 -0.9350 0.0394,
      0.8071 -0.6201 0.0394,
      0.6102 -0.6201 0.0394 ] }
    coordIndex [
      0 3 2 1 -1,
      4 5 6 7 -1,
      0 1 5 4 -1,
      1 2 6 5 -1,
      2 3 7 6 -1,
      3 0 4 7 -1 ]
  }
}
