#VRML V2.0 utf8
# TUOZHAN S4-3528RGBTA-A: 3,5 x 2,8 x 1,9, corpo branco, lente transparente incolor, anodo comum no pino 2
Shape {
  appearance Appearance { material Material { diffuseColor 0.86 0.85 0.88 } }
  geometry IndexedFaceSet {
    coord Coordinate { point [
      -0.6890 -0.5512 0.0000,
      0.6890 -0.5512 0.0000,
      0.6890 0.5512 0.0000,
      -0.6890 0.5512 0.0000,
      -0.6890 -0.5512 0.4134,
      0.6890 -0.5512 0.4134,
      0.6890 0.5512 0.4134,
      -0.6890 0.5512 0.4134 ] }
    coordIndex [
      0 3 2 1 -1,
      4 5 6 7 -1,
      0 1 5 4 -1,
      1 2 6 5 -1,
      2 3 7 6 -1,
      3 0 4 7 -1 ]
  }
}
Shape {
  appearance Appearance { material Material { diffuseColor 0.86 0.85 0.88 } }
  geometry IndexedFaceSet {
    coord Coordinate { point [
      -0.6299 -0.4921 0.4134,
      0.6299 -0.4921 0.4134,
      0.6299 0.4921 0.4134,
      -0.6299 0.4921 0.4134,
      -0.6299 -0.4921 0.7480,
      0.6299 -0.4921 0.7480,
      0.6299 0.4921 0.7480,
      -0.6299 0.4921 0.7480 ] }
    coordIndex [
      0 3 2 1 -1,
      4 5 6 7 -1,
      0 1 5 4 -1,
      1 2 6 5 -1,
      2 3 7 6 -1,
      3 0 4 7 -1 ]
  }
}
Shape {
  appearance Appearance { material Material { diffuseColor 0.96 0.94 0.96 } }
  geometry IndexedFaceSet {
    coord Coordinate { point [
      -0.5197 -0.4213 0.3543,
      0.5197 -0.4213 0.3543,
      0.5197 0.4213 0.3543,
      -0.5197 0.4213 0.3543,
      -0.5197 -0.4213 0.7480,
      0.5197 -0.4213 0.7480,
      0.5197 0.4213 0.7480,
      -0.5197 0.4213 0.7480 ] }
    coordIndex [
      0 3 2 1 -1,
      4 5 6 7 -1,
      0 1 5 4 -1,
      1 2 6 5 -1,
      2 3 7 6 -1,
      3 0 4 7 -1 ]
  }
}
Shape {
  appearance Appearance { material Material { diffuseColor 0.92 0.94 0.96 } }
  geometry IndexedFaceSet {
    coord Coordinate { point [
      -0.5118 -0.4134 0.3937,
      0.5118 -0.4134 0.3937,
      0.5118 0.4134 0.3937,
      -0.5118 0.4134 0.3937,
      -0.5118 -0.4134 0.7402,
      0.5118 -0.4134 0.7402,
      0.5118 0.4134 0.7402,
      -0.5118 0.4134 0.7402 ] }
    coordIndex [
      0 3 2 1 -1,
      4 5 6 7 -1,
      0 1 5 4 -1,
      1 2 6 5 -1,
      2 3 7 6 -1,
      3 0 4 7 -1 ]
  }
}
Shape {
  appearance Appearance { material Material { diffuseColor 0.74 0.75 0.77 } }
  geometry IndexedFaceSet {
    coord Coordinate { point [
      -0.6890 -0.4331 0.0000,
      -0.3740 -0.4331 0.0000,
      -0.3740 -0.1240 0.0000,
      -0.6890 -0.1240 0.0000,
      -0.6890 -0.4331 0.0236,
      -0.3740 -0.4331 0.0236,
      -0.3740 -0.1240 0.0236,
      -0.6890 -0.1240 0.0236 ] }
    coordIndex [
      0 3 2 1 -1,
      4 5 6 7 -1,
      0 1 5 4 -1,
      1 2 6 5 -1,
      2 3 7 6 -1,
      3 0 4 7 -1 ]
  }
}
Shape {
  appearance Appearance { material Material { diffuseColor 0.74 0.75 0.77 } }
  geometry IndexedFaceSet {
    coord Coordinate { point [
      -0.6890 0.1240 0.0000,
      -0.3740 0.1240 0.0000,
      -0.3740 0.4331 0.0000,
      -0.6890 0.4331 0.0000,
      -0.6890 0.1240 0.0236,
      -0.3740 0.1240 0.0236,
      -0.3740 0.4331 0.0236,
      -0.6890 0.4331 0.0236 ] }
    coordIndex [
      0 3 2 1 -1,
      4 5 6 7 -1,
      0 1 5 4 -1,
      1 2 6 5 -1,
      2 3 7 6 -1,
      3 0 4 7 -1 ]
  }
}
Shape {
  appearance Appearance { material Material { diffuseColor 0.74 0.75 0.77 } }
  geometry IndexedFaceSet {
    coord Coordinate { point [
      0.3740 -0.4331 0.0000,
      0.6890 -0.4331 0.0000,
      0.6890 -0.1240 0.0000,
      0.3740 -0.1240 0.0000,
      0.3740 -0.4331 0.0236,
      0.6890 -0.4331 0.0236,
      0.6890 -0.1240 0.0236,
      0.3740 -0.1240 0.0236 ] }
    coordIndex [
      0 3 2 1 -1,
      4 5 6 7 -1,
      0 1 5 4 -1,
      1 2 6 5 -1,
      2 3 7 6 -1,
      3 0 4 7 -1 ]
  }
}
Shape {
  appearance Appearance { material Material { diffuseColor 0.74 0.75 0.77 } }
  geometry IndexedFaceSet {
    coord Coordinate { point [
      0.3740 0.1240 0.0000,
      0.6890 0.1240 0.0000,
      0.6890 0.4331 0.0000,
      0.3740 0.4331 0.0000,
      0.3740 0.1240 0.0236,
      0.6890 0.1240 0.0236,
      0.6890 0.4331 0.0236,
      0.3740 0.4331 0.0236 ] }
    coordIndex [
      0 3 2 1 -1,
      4 5 6 7 -1,
      0 1 5 4 -1,
      1 2 6 5 -1,
      2 3 7 6 -1,
      3 0 4 7 -1 ]
  }
}
