#VRML V2.0 utf8
# MinewSemi ME54BS13, do desenho mecanico da ficha V1.0.0:
# 12,00 x 16,50 x 2,40 mm, com a antena nos 4,46 mm de uma ponta,
# fora da blindagem. Corpo desenhado aqui: a Minew nao publica STEP.
Shape {
  appearance Appearance { material Material { diffuseColor 0.05 0.28 0.12 } }
  geometry IndexedFaceSet {
    coord Coordinate { point [
      -2.3622 -3.2480 0.0000,
      2.3622 -3.2480 0.0000,
      2.3622 3.2480 0.0000,
      -2.3622 3.2480 0.0000,
      -2.3622 -3.2480 0.3150,
      2.3622 -3.2480 0.3150,
      2.3622 3.2480 0.3150,
      -2.3622 3.2480 0.3150 ] }
    coordIndex [
      0 3 2 1 -1,
      4 5 6 7 -1,
      0 1 5 4 -1,
      1 2 6 5 -1,
      2 3 7 6 -1,
      3 0 4 7 -1 ]
  }
}
Shape {
  appearance Appearance { material Material { diffuseColor 0.62 0.63 0.66 } }
  geometry IndexedFaceSet {
    coord Coordinate { point [
      -2.3228 -1.4921 0.3150,
      2.3228 -1.4921 0.3150,
      2.3228 3.2087 0.3150,
      -2.3228 3.2087 0.3150,
      -2.3228 -1.4921 0.9449,
      2.3228 -1.4921 0.9449,
      2.3228 3.2087 0.9449,
      -2.3228 3.2087 0.9449 ] }
    coordIndex [
      0 3 2 1 -1,
      4 5 6 7 -1,
      0 1 5 4 -1,
      1 2 6 5 -1,
      2 3 7 6 -1,
      3 0 4 7 -1 ]
  }
}
Shape {
  appearance Appearance { material Material { diffuseColor 0.78 0.66 0.3 } }
  geometry IndexedFaceSet {
    coord Coordinate { point [
      -2.1260 -3.0118 0.3150,
      2.1260 -3.0118 0.3150,
      2.1260 -2.7756 0.3150,
      -2.1260 -2.7756 0.3150,
      -2.1260 -3.0118 0.3346,
      2.1260 -3.0118 0.3346,
      2.1260 -2.7756 0.3346,
      -2.1260 -2.7756 0.3346 ] }
    coordIndex [
      0 3 2 1 -1,
      4 5 6 7 -1,
      0 1 5 4 -1,
      1 2 6 5 -1,
      2 3 7 6 -1,
      3 0 4 7 -1 ]
  }
}
Shape {
  appearance Appearance { material Material { diffuseColor 0.78 0.66 0.3 } }
  geometry IndexedFaceSet {
    coord Coordinate { point [
      -2.1260 -2.3031 0.3150,
      2.1260 -2.3031 0.3150,
      2.1260 -2.0669 0.3150,
      -2.1260 -2.0669 0.3150,
      -2.1260 -2.3031 0.3346,
      2.1260 -2.3031 0.3346,
      2.1260 -2.0669 0.3346,
      -2.1260 -2.0669 0.3346 ] }
    coordIndex [
      0 3 2 1 -1,
      4 5 6 7 -1,
      0 1 5 4 -1,
      1 2 6 5 -1,
      2 3 7 6 -1,
      3 0 4 7 -1 ]
  }
}
