#VRML V2.0 utf8
# conector magnetico de 6 vias, 9,0 x 5,0 x 3,2: DESENHADO POR ESTE PROJETO, nao por um fabricante.
# Contatos chatos de ouro no APARELHO e molas no CABO, para o pod poder ser vedado.
Shape {
  appearance Appearance { material Material { diffuseColor 0.1 0.1 0.11 } }
  geometry IndexedFaceSet {
    coord Coordinate { point [
      -1.6929 -0.9055 0.0000,
      1.6929 -0.9055 0.0000,
      1.6929 0.9055 0.0000,
      -1.6929 0.9055 0.0000,
      -1.6929 -0.9055 1.1220,
      1.6929 -0.9055 1.1220,
      1.6929 0.9055 1.1220,
      -1.6929 0.9055 1.1220 ] }
    coordIndex [
      0 3 2 1 -1,
      4 5 6 7 -1,
      0 1 5 4 -1,
      1 2 6 5 -1,
      2 3 7 6 -1,
      3 0 4 7 -1 ]
  }
}
Shape {
  appearance Appearance { material Material { diffuseColor 0.1 0.1 0.11 } }
  geometry IndexedFaceSet {
    coord Coordinate { point [
      -1.5551 -0.7677 1.1220,
      1.5551 -0.7677 1.1220,
      1.5551 0.7677 1.1220,
      -1.5551 0.7677 1.1220,
      -1.5551 -0.7677 1.2598,
      1.5551 -0.7677 1.2598,
      1.5551 0.7677 1.2598,
      -1.5551 0.7677 1.2598 ] }
    coordIndex [
      0 3 2 1 -1,
      4 5 6 7 -1,
      0 1 5 4 -1,
      1 2 6 5 -1,
      2 3 7 6 -1,
      3 0 4 7 -1 ]
  }
}
Shape {
  appearance Appearance { material Material { diffuseColor 0.78 0.79 0.81 } }
  geometry IndexedFaceSet {
    coord Coordinate { point [
      -1.7520 -0.8268 0.0000,
      -1.3189 -0.8268 0.0000,
      -1.3189 0.8268 0.0000,
      -1.7520 0.8268 0.0000,
      -1.7520 -0.8268 1.2598,
      -1.3189 -0.8268 1.2598,
      -1.3189 0.8268 1.2598,
      -1.7520 0.8268 1.2598 ] }
    coordIndex [
      0 3 2 1 -1,
      4 5 6 7 -1,
      0 1 5 4 -1,
      1 2 6 5 -1,
      2 3 7 6 -1,
      3 0 4 7 -1 ]
  }
}
Shape {
  appearance Appearance { material Material { diffuseColor 0.74 0.75 0.77 } }
  geometry IndexedFaceSet {
    coord Coordinate { point [
      -1.6929 -0.8661 0.0000,
      -1.3780 -0.8661 0.0000,
      -1.3780 0.8661 0.0000,
      -1.6929 0.8661 0.0000,
      -1.6929 -0.8661 0.0315,
      -1.3780 -0.8661 0.0315,
      -1.3780 0.8661 0.0315,
      -1.6929 0.8661 0.0315 ] }
    coordIndex [
      0 3 2 1 -1,
      4 5 6 7 -1,
      0 1 5 4 -1,
      1 2 6 5 -1,
      2 3 7 6 -1,
      3 0 4 7 -1 ]
  }
}
Shape {
  appearance Appearance { material Material { diffuseColor 0.78 0.79 0.81 } }
  geometry IndexedFaceSet {
    coord Coordinate { point [
      1.3189 -0.8268 0.0000,
      1.7520 -0.8268 0.0000,
      1.7520 0.8268 0.0000,
      1.3189 0.8268 0.0000,
      1.3189 -0.8268 1.2598,
      1.7520 -0.8268 1.2598,
      1.7520 0.8268 1.2598,
      1.3189 0.8268 1.2598 ] }
    coordIndex [
      0 3 2 1 -1,
      4 5 6 7 -1,
      0 1 5 4 -1,
      1 2 6 5 -1,
      2 3 7 6 -1,
      3 0 4 7 -1 ]
  }
}
Shape {
  appearance Appearance { material Material { diffuseColor 0.74 0.75 0.77 } }
  geometry IndexedFaceSet {
    coord Coordinate { point [
      1.3780 -0.8661 0.0000,
      1.6929 -0.8661 0.0000,
      1.6929 0.8661 0.0000,
      1.3780 0.8661 0.0000,
      1.3780 -0.8661 0.0315,
      1.6929 -0.8661 0.0315,
      1.6929 0.8661 0.0315,
      1.3780 0.8661 0.0315 ] }
    coordIndex [
      0 3 2 1 -1,
      4 5 6 7 -1,
      0 1 5 4 -1,
      1 2 6 5 -1,
      2 3 7 6 -1,
      3 0 4 7 -1 ]
  }
}
Shape {
  appearance Appearance { material Material { diffuseColor 0.83 0.69 0.22 } }
  geometry IndexedFaceSet {
    coord Coordinate { point [
      -0.7283 -0.4921 1.2205,
      -0.7478 -0.3942 1.2205,
      -0.8033 -0.3112 1.2205,
      -0.8863 -0.2557 1.2205,
      -0.9843 -0.2362 1.2205,
      -1.0822 -0.2557 1.2205,
      -1.1652 -0.3112 1.2205,
      -1.2207 -0.3942 1.2205,
      -1.2402 -0.4921 1.2205,
      -1.2207 -0.5901 1.2205,
      -1.1652 -0.6731 1.2205,
      -1.0822 -0.7286 1.2205,
      -0.9843 -0.7480 1.2205,
      -0.8863 -0.7286 1.2205,
      -0.8033 -0.6731 1.2205,
      -0.7478 -0.5901 1.2205,
      -0.7283 -0.4921 1.2795,
      -0.7478 -0.3942 1.2795,
      -0.8033 -0.3112 1.2795,
      -0.8863 -0.2557 1.2795,
      -0.9843 -0.2362 1.2795,
      -1.0822 -0.2557 1.2795,
      -1.1652 -0.3112 1.2795,
      -1.2207 -0.3942 1.2795,
      -1.2402 -0.4921 1.2795,
      -1.2207 -0.5901 1.2795,
      -1.1652 -0.6731 1.2795,
      -1.0822 -0.7286 1.2795,
      -0.9843 -0.7480 1.2795,
      -0.8863 -0.7286 1.2795,
      -0.8033 -0.6731 1.2795,
      -0.7478 -0.5901 1.2795 ] }
    coordIndex [
      0 1 17 16 -1,
      1 2 18 17 -1,
      2 3 19 18 -1,
      3 4 20 19 -1,
      4 5 21 20 -1,
      5 6 22 21 -1,
      6 7 23 22 -1,
      7 8 24 23 -1,
      8 9 25 24 -1,
      9 10 26 25 -1,
      10 11 27 26 -1,
      11 12 28 27 -1,
      12 13 29 28 -1,
      13 14 30 29 -1,
      14 15 31 30 -1,
      15 0 16 31 -1,
      15 14 13 12 11 10 9 8 7 6 5 4 3 2 1 0 -1,
      16 17 18 19 20 21 22 23 24 25 26 27 28 29 30 31 -1 ]
  }
}
Shape {
  appearance Appearance { material Material { diffuseColor 0.74 0.75 0.77 } }
  geometry IndexedFaceSet {
    coord Coordinate { point [
      -0.6890 -0.4921 0.0000,
      -0.7115 -0.3791 0.0000,
      -0.7755 -0.2833 0.0000,
      -0.8713 -0.2193 0.0000,
      -0.9843 -0.1969 0.0000,
      -1.0972 -0.2193 0.0000,
      -1.1930 -0.2833 0.0000,
      -1.2571 -0.3791 0.0000,
      -1.2795 -0.4921 0.0000,
      -1.2571 -0.6051 0.0000,
      -1.1930 -0.7009 0.0000,
      -1.0972 -0.7649 0.0000,
      -0.9843 -0.7874 0.0000,
      -0.8713 -0.7649 0.0000,
      -0.7755 -0.7009 0.0000,
      -0.7115 -0.6051 0.0000,
      -0.6890 -0.4921 0.0315,
      -0.7115 -0.3791 0.0315,
      -0.7755 -0.2833 0.0315,
      -0.8713 -0.2193 0.0315,
      -0.9843 -0.1969 0.0315,
      -1.0972 -0.2193 0.0315,
      -1.1930 -0.2833 0.0315,
      -1.2571 -0.3791 0.0315,
      -1.2795 -0.4921 0.0315,
      -1.2571 -0.6051 0.0315,
      -1.1930 -0.7009 0.0315,
      -1.0972 -0.7649 0.0315,
      -0.9843 -0.7874 0.0315,
      -0.8713 -0.7649 0.0315,
      -0.7755 -0.7009 0.0315,
      -0.7115 -0.6051 0.0315 ] }
    coordIndex [
      0 1 17 16 -1,
      1 2 18 17 -1,
      2 3 19 18 -1,
      3 4 20 19 -1,
      4 5 21 20 -1,
      5 6 22 21 -1,
      6 7 23 22 -1,
      7 8 24 23 -1,
      8 9 25 24 -1,
      9 10 26 25 -1,
      10 11 27 26 -1,
      11 12 28 27 -1,
      12 13 29 28 -1,
      13 14 30 29 -1,
      14 15 31 30 -1,
      15 0 16 31 -1,
      15 14 13 12 11 10 9 8 7 6 5 4 3 2 1 0 -1,
      16 17 18 19 20 21 22 23 24 25 26 27 28 29 30 31 -1 ]
  }
}
Shape {
  appearance Appearance { material Material { diffuseColor 0.83 0.69 0.22 } }
  geometry IndexedFaceSet {
    coord Coordinate { point [
      0.2559 -0.4921 1.2205,
      0.2364 -0.3942 1.2205,
      0.1810 -0.3112 1.2205,
      0.0979 -0.2557 1.2205,
      0.0000 -0.2362 1.2205,
      -0.0979 -0.2557 1.2205,
      -0.1810 -0.3112 1.2205,
      -0.2364 -0.3942 1.2205,
      -0.2559 -0.4921 1.2205,
      -0.2364 -0.5901 1.2205,
      -0.1810 -0.6731 1.2205,
      -0.0979 -0.7286 1.2205,
      -0.0000 -0.7480 1.2205,
      0.0979 -0.7286 1.2205,
      0.1810 -0.6731 1.2205,
      0.2364 -0.5901 1.2205,
      0.2559 -0.4921 1.2795,
      0.2364 -0.3942 1.2795,
      0.1810 -0.3112 1.2795,
      0.0979 -0.2557 1.2795,
      0.0000 -0.2362 1.2795,
      -0.0979 -0.2557 1.2795,
      -0.1810 -0.3112 1.2795,
      -0.2364 -0.3942 1.2795,
      -0.2559 -0.4921 1.2795,
      -0.2364 -0.5901 1.2795,
      -0.1810 -0.6731 1.2795,
      -0.0979 -0.7286 1.2795,
      -0.0000 -0.7480 1.2795,
      0.0979 -0.7286 1.2795,
      0.1810 -0.6731 1.2795,
      0.2364 -0.5901 1.2795 ] }
    coordIndex [
      0 1 17 16 -1,
      1 2 18 17 -1,
      2 3 19 18 -1,
      3 4 20 19 -1,
      4 5 21 20 -1,
      5 6 22 21 -1,
      6 7 23 22 -1,
      7 8 24 23 -1,
      8 9 25 24 -1,
      9 10 26 25 -1,
      10 11 27 26 -1,
      11 12 28 27 -1,
      12 13 29 28 -1,
      13 14 30 29 -1,
      14 15 31 30 -1,
      15 0 16 31 -1,
      15 14 13 12 11 10 9 8 7 6 5 4 3 2 1 0 -1,
      16 17 18 19 20 21 22 23 24 25 26 27 28 29 30 31 -1 ]
  }
}
Shape {
  appearance Appearance { material Material { diffuseColor 0.74 0.75 0.77 } }
  geometry IndexedFaceSet {
    coord Coordinate { point [
      0.2953 -0.4921 0.0000,
      0.2728 -0.3791 0.0000,
      0.2088 -0.2833 0.0000,
      0.1130 -0.2193 0.0000,
      0.0000 -0.1969 0.0000,
      -0.1130 -0.2193 0.0000,
      -0.2088 -0.2833 0.0000,
      -0.2728 -0.3791 0.0000,
      -0.2953 -0.4921 0.0000,
      -0.2728 -0.6051 0.0000,
      -0.2088 -0.7009 0.0000,
      -0.1130 -0.7649 0.0000,
      -0.0000 -0.7874 0.0000,
      0.1130 -0.7649 0.0000,
      0.2088 -0.7009 0.0000,
      0.2728 -0.6051 0.0000,
      0.2953 -0.4921 0.0315,
      0.2728 -0.3791 0.0315,
      0.2088 -0.2833 0.0315,
      0.1130 -0.2193 0.0315,
      0.0000 -0.1969 0.0315,
      -0.1130 -0.2193 0.0315,
      -0.2088 -0.2833 0.0315,
      -0.2728 -0.3791 0.0315,
      -0.2953 -0.4921 0.0315,
      -0.2728 -0.6051 0.0315,
      -0.2088 -0.7009 0.0315,
      -0.1130 -0.7649 0.0315,
      -0.0000 -0.7874 0.0315,
      0.1130 -0.7649 0.0315,
      0.2088 -0.7009 0.0315,
      0.2728 -0.6051 0.0315 ] }
    coordIndex [
      0 1 17 16 -1,
      1 2 18 17 -1,
      2 3 19 18 -1,
      3 4 20 19 -1,
      4 5 21 20 -1,
      5 6 22 21 -1,
      6 7 23 22 -1,
      7 8 24 23 -1,
      8 9 25 24 -1,
      9 10 26 25 -1,
      10 11 27 26 -1,
      11 12 28 27 -1,
      12 13 29 28 -1,
      13 14 30 29 -1,
      14 15 31 30 -1,
      15 0 16 31 -1,
      15 14 13 12 11 10 9 8 7 6 5 4 3 2 1 0 -1,
      16 17 18 19 20 21 22 23 24 25 26 27 28 29 30 31 -1 ]
  }
}
Shape {
  appearance Appearance { material Material { diffuseColor 0.83 0.69 0.22 } }
  geometry IndexedFaceSet {
    coord Coordinate { point [
      1.2402 -0.4921 1.2205,
      1.2207 -0.3942 1.2205,
      1.1652 -0.3112 1.2205,
      1.0822 -0.2557 1.2205,
      0.9843 -0.2362 1.2205,
      0.8863 -0.2557 1.2205,
      0.8033 -0.3112 1.2205,
      0.7478 -0.3942 1.2205,
      0.7283 -0.4921 1.2205,
      0.7478 -0.5901 1.2205,
      0.8033 -0.6731 1.2205,
      0.8863 -0.7286 1.2205,
      0.9843 -0.7480 1.2205,
      1.0822 -0.7286 1.2205,
      1.1652 -0.6731 1.2205,
      1.2207 -0.5901 1.2205,
      1.2402 -0.4921 1.2795,
      1.2207 -0.3942 1.2795,
      1.1652 -0.3112 1.2795,
      1.0822 -0.2557 1.2795,
      0.9843 -0.2362 1.2795,
      0.8863 -0.2557 1.2795,
      0.8033 -0.3112 1.2795,
      0.7478 -0.3942 1.2795,
      0.7283 -0.4921 1.2795,
      0.7478 -0.5901 1.2795,
      0.8033 -0.6731 1.2795,
      0.8863 -0.7286 1.2795,
      0.9843 -0.7480 1.2795,
      1.0822 -0.7286 1.2795,
      1.1652 -0.6731 1.2795,
      1.2207 -0.5901 1.2795 ] }
    coordIndex [
      0 1 17 16 -1,
      1 2 18 17 -1,
      2 3 19 18 -1,
      3 4 20 19 -1,
      4 5 21 20 -1,
      5 6 22 21 -1,
      6 7 23 22 -1,
      7 8 24 23 -1,
      8 9 25 24 -1,
      9 10 26 25 -1,
      10 11 27 26 -1,
      11 12 28 27 -1,
      12 13 29 28 -1,
      13 14 30 29 -1,
      14 15 31 30 -1,
      15 0 16 31 -1,
      15 14 13 12 11 10 9 8 7 6 5 4 3 2 1 0 -1,
      16 17 18 19 20 21 22 23 24 25 26 27 28 29 30 31 -1 ]
  }
}
Shape {
  appearance Appearance { material Material { diffuseColor 0.74 0.75 0.77 } }
  geometry IndexedFaceSet {
    coord Coordinate { point [
      1.2795 -0.4921 0.0000,
      1.2571 -0.3791 0.0000,
      1.1930 -0.2833 0.0000,
      1.0972 -0.2193 0.0000,
      0.9843 -0.1969 0.0000,
      0.8713 -0.2193 0.0000,
      0.7755 -0.2833 0.0000,
      0.7115 -0.3791 0.0000,
      0.6890 -0.4921 0.0000,
      0.7115 -0.6051 0.0000,
      0.7755 -0.7009 0.0000,
      0.8713 -0.7649 0.0000,
      0.9843 -0.7874 0.0000,
      1.0972 -0.7649 0.0000,
      1.1930 -0.7009 0.0000,
      1.2571 -0.6051 0.0000,
      1.2795 -0.4921 0.0315,
      1.2571 -0.3791 0.0315,
      1.1930 -0.2833 0.0315,
      1.0972 -0.2193 0.0315,
      0.9843 -0.1969 0.0315,
      0.8713 -0.2193 0.0315,
      0.7755 -0.2833 0.0315,
      0.7115 -0.3791 0.0315,
      0.6890 -0.4921 0.0315,
      0.7115 -0.6051 0.0315,
      0.7755 -0.7009 0.0315,
      0.8713 -0.7649 0.0315,
      0.9843 -0.7874 0.0315,
      1.0972 -0.7649 0.0315,
      1.1930 -0.7009 0.0315,
      1.2571 -0.6051 0.0315 ] }
    coordIndex [
      0 1 17 16 -1,
      1 2 18 17 -1,
      2 3 19 18 -1,
      3 4 20 19 -1,
      4 5 21 20 -1,
      5 6 22 21 -1,
      6 7 23 22 -1,
      7 8 24 23 -1,
      8 9 25 24 -1,
      9 10 26 25 -1,
      10 11 27 26 -1,
      11 12 28 27 -1,
      12 13 29 28 -1,
      13 14 30 29 -1,
      14 15 31 30 -1,
      15 0 16 31 -1,
      15 14 13 12 11 10 9 8 7 6 5 4 3 2 1 0 -1,
      16 17 18 19 20 21 22 23 24 25 26 27 28 29 30 31 -1 ]
  }
}
Shape {
  appearance Appearance { material Material { diffuseColor 0.83 0.69 0.22 } }
  geometry IndexedFaceSet {
    coord Coordinate { point [
      -0.7283 0.4921 1.2205,
      -0.7478 0.5901 1.2205,
      -0.8033 0.6731 1.2205,
      -0.8863 0.7286 1.2205,
      -0.9843 0.7480 1.2205,
      -1.0822 0.7286 1.2205,
      -1.1652 0.6731 1.2205,
      -1.2207 0.5901 1.2205,
      -1.2402 0.4921 1.2205,
      -1.2207 0.3942 1.2205,
      -1.1652 0.3112 1.2205,
      -1.0822 0.2557 1.2205,
      -0.9843 0.2362 1.2205,
      -0.8863 0.2557 1.2205,
      -0.8033 0.3112 1.2205,
      -0.7478 0.3942 1.2205,
      -0.7283 0.4921 1.2795,
      -0.7478 0.5901 1.2795,
      -0.8033 0.6731 1.2795,
      -0.8863 0.7286 1.2795,
      -0.9843 0.7480 1.2795,
      -1.0822 0.7286 1.2795,
      -1.1652 0.6731 1.2795,
      -1.2207 0.5901 1.2795,
      -1.2402 0.4921 1.2795,
      -1.2207 0.3942 1.2795,
      -1.1652 0.3112 1.2795,
      -1.0822 0.2557 1.2795,
      -0.9843 0.2362 1.2795,
      -0.8863 0.2557 1.2795,
      -0.8033 0.3112 1.2795,
      -0.7478 0.3942 1.2795 ] }
    coordIndex [
      0 1 17 16 -1,
      1 2 18 17 -1,
      2 3 19 18 -1,
      3 4 20 19 -1,
      4 5 21 20 -1,
      5 6 22 21 -1,
      6 7 23 22 -1,
      7 8 24 23 -1,
      8 9 25 24 -1,
      9 10 26 25 -1,
      10 11 27 26 -1,
      11 12 28 27 -1,
      12 13 29 28 -1,
      13 14 30 29 -1,
      14 15 31 30 -1,
      15 0 16 31 -1,
      15 14 13 12 11 10 9 8 7 6 5 4 3 2 1 0 -1,
      16 17 18 19 20 21 22 23 24 25 26 27 28 29 30 31 -1 ]
  }
}
Shape {
  appearance Appearance { material Material { diffuseColor 0.74 0.75 0.77 } }
  geometry IndexedFaceSet {
    coord Coordinate { point [
      -0.6890 0.4921 0.0000,
      -0.7115 0.6051 0.0000,
      -0.7755 0.7009 0.0000,
      -0.8713 0.7649 0.0000,
      -0.9843 0.7874 0.0000,
      -1.0972 0.7649 0.0000,
      -1.1930 0.7009 0.0000,
      -1.2571 0.6051 0.0000,
      -1.2795 0.4921 0.0000,
      -1.2571 0.3791 0.0000,
      -1.1930 0.2833 0.0000,
      -1.0972 0.2193 0.0000,
      -0.9843 0.1969 0.0000,
      -0.8713 0.2193 0.0000,
      -0.7755 0.2833 0.0000,
      -0.7115 0.3791 0.0000,
      -0.6890 0.4921 0.0315,
      -0.7115 0.6051 0.0315,
      -0.7755 0.7009 0.0315,
      -0.8713 0.7649 0.0315,
      -0.9843 0.7874 0.0315,
      -1.0972 0.7649 0.0315,
      -1.1930 0.7009 0.0315,
      -1.2571 0.6051 0.0315,
      -1.2795 0.4921 0.0315,
      -1.2571 0.3791 0.0315,
      -1.1930 0.2833 0.0315,
      -1.0972 0.2193 0.0315,
      -0.9843 0.1969 0.0315,
      -0.8713 0.2193 0.0315,
      -0.7755 0.2833 0.0315,
      -0.7115 0.3791 0.0315 ] }
    coordIndex [
      0 1 17 16 -1,
      1 2 18 17 -1,
      2 3 19 18 -1,
      3 4 20 19 -1,
      4 5 21 20 -1,
      5 6 22 21 -1,
      6 7 23 22 -1,
      7 8 24 23 -1,
      8 9 25 24 -1,
      9 10 26 25 -1,
      10 11 27 26 -1,
      11 12 28 27 -1,
      12 13 29 28 -1,
      13 14 30 29 -1,
      14 15 31 30 -1,
      15 0 16 31 -1,
      15 14 13 12 11 10 9 8 7 6 5 4 3 2 1 0 -1,
      16 17 18 19 20 21 22 23 24 25 26 27 28 29 30 31 -1 ]
  }
}
Shape {
  appearance Appearance { material Material { diffuseColor 0.83 0.69 0.22 } }
  geometry IndexedFaceSet {
    coord Coordinate { point [
      0.2559 0.4921 1.2205,
      0.2364 0.5901 1.2205,
      0.1810 0.6731 1.2205,
      0.0979 0.7286 1.2205,
      0.0000 0.7480 1.2205,
      -0.0979 0.7286 1.2205,
      -0.1810 0.6731 1.2205,
      -0.2364 0.5901 1.2205,
      -0.2559 0.4921 1.2205,
      -0.2364 0.3942 1.2205,
      -0.1810 0.3112 1.2205,
      -0.0979 0.2557 1.2205,
      -0.0000 0.2362 1.2205,
      0.0979 0.2557 1.2205,
      0.1810 0.3112 1.2205,
      0.2364 0.3942 1.2205,
      0.2559 0.4921 1.2795,
      0.2364 0.5901 1.2795,
      0.1810 0.6731 1.2795,
      0.0979 0.7286 1.2795,
      0.0000 0.7480 1.2795,
      -0.0979 0.7286 1.2795,
      -0.1810 0.6731 1.2795,
      -0.2364 0.5901 1.2795,
      -0.2559 0.4921 1.2795,
      -0.2364 0.3942 1.2795,
      -0.1810 0.3112 1.2795,
      -0.0979 0.2557 1.2795,
      -0.0000 0.2362 1.2795,
      0.0979 0.2557 1.2795,
      0.1810 0.3112 1.2795,
      0.2364 0.3942 1.2795 ] }
    coordIndex [
      0 1 17 16 -1,
      1 2 18 17 -1,
      2 3 19 18 -1,
      3 4 20 19 -1,
      4 5 21 20 -1,
      5 6 22 21 -1,
      6 7 23 22 -1,
      7 8 24 23 -1,
      8 9 25 24 -1,
      9 10 26 25 -1,
      10 11 27 26 -1,
      11 12 28 27 -1,
      12 13 29 28 -1,
      13 14 30 29 -1,
      14 15 31 30 -1,
      15 0 16 31 -1,
      15 14 13 12 11 10 9 8 7 6 5 4 3 2 1 0 -1,
      16 17 18 19 20 21 22 23 24 25 26 27 28 29 30 31 -1 ]
  }
}
Shape {
  appearance Appearance { material Material { diffuseColor 0.74 0.75 0.77 } }
  geometry IndexedFaceSet {
    coord Coordinate { point [
      0.2953 0.4921 0.0000,
      0.2728 0.6051 0.0000,
      0.2088 0.7009 0.0000,
      0.1130 0.7649 0.0000,
      0.0000 0.7874 0.0000,
      -0.1130 0.7649 0.0000,
      -0.2088 0.7009 0.0000,
      -0.2728 0.6051 0.0000,
      -0.2953 0.4921 0.0000,
      -0.2728 0.3791 0.0000,
      -0.2088 0.2833 0.0000,
      -0.1130 0.2193 0.0000,
      -0.0000 0.1969 0.0000,
      0.1130 0.2193 0.0000,
      0.2088 0.2833 0.0000,
      0.2728 0.3791 0.0000,
      0.2953 0.4921 0.0315,
      0.2728 0.6051 0.0315,
      0.2088 0.7009 0.0315,
      0.1130 0.7649 0.0315,
      0.0000 0.7874 0.0315,
      -0.1130 0.7649 0.0315,
      -0.2088 0.7009 0.0315,
      -0.2728 0.6051 0.0315,
      -0.2953 0.4921 0.0315,
      -0.2728 0.3791 0.0315,
      -0.2088 0.2833 0.0315,
      -0.1130 0.2193 0.0315,
      -0.0000 0.1969 0.0315,
      0.1130 0.2193 0.0315,
      0.2088 0.2833 0.0315,
      0.2728 0.3791 0.0315 ] }
    coordIndex [
      0 1 17 16 -1,
      1 2 18 17 -1,
      2 3 19 18 -1,
      3 4 20 19 -1,
      4 5 21 20 -1,
      5 6 22 21 -1,
      6 7 23 22 -1,
      7 8 24 23 -1,
      8 9 25 24 -1,
      9 10 26 25 -1,
      10 11 27 26 -1,
      11 12 28 27 -1,
      12 13 29 28 -1,
      13 14 30 29 -1,
      14 15 31 30 -1,
      15 0 16 31 -1,
      15 14 13 12 11 10 9 8 7 6 5 4 3 2 1 0 -1,
      16 17 18 19 20 21 22 23 24 25 26 27 28 29 30 31 -1 ]
  }
}
Shape {
  appearance Appearance { material Material { diffuseColor 0.83 0.69 0.22 } }
  geometry IndexedFaceSet {
    coord Coordinate { point [
      1.2402 0.4921 1.2205,
      1.2207 0.5901 1.2205,
      1.1652 0.6731 1.2205,
      1.0822 0.7286 1.2205,
      0.9843 0.7480 1.2205,
      0.8863 0.7286 1.2205,
      0.8033 0.6731 1.2205,
      0.7478 0.5901 1.2205,
      0.7283 0.4921 1.2205,
      0.7478 0.3942 1.2205,
      0.8033 0.3112 1.2205,
      0.8863 0.2557 1.2205,
      0.9843 0.2362 1.2205,
      1.0822 0.2557 1.2205,
      1.1652 0.3112 1.2205,
      1.2207 0.3942 1.2205,
      1.2402 0.4921 1.2795,
      1.2207 0.5901 1.2795,
      1.1652 0.6731 1.2795,
      1.0822 0.7286 1.2795,
      0.9843 0.7480 1.2795,
      0.8863 0.7286 1.2795,
      0.8033 0.6731 1.2795,
      0.7478 0.5901 1.2795,
      0.7283 0.4921 1.2795,
      0.7478 0.3942 1.2795,
      0.8033 0.3112 1.2795,
      0.8863 0.2557 1.2795,
      0.9843 0.2362 1.2795,
      1.0822 0.2557 1.2795,
      1.1652 0.3112 1.2795,
      1.2207 0.3942 1.2795 ] }
    coordIndex [
      0 1 17 16 -1,
      1 2 18 17 -1,
      2 3 19 18 -1,
      3 4 20 19 -1,
      4 5 21 20 -1,
      5 6 22 21 -1,
      6 7 23 22 -1,
      7 8 24 23 -1,
      8 9 25 24 -1,
      9 10 26 25 -1,
      10 11 27 26 -1,
      11 12 28 27 -1,
      12 13 29 28 -1,
      13 14 30 29 -1,
      14 15 31 30 -1,
      15 0 16 31 -1,
      15 14 13 12 11 10 9 8 7 6 5 4 3 2 1 0 -1,
      16 17 18 19 20 21 22 23 24 25 26 27 28 29 30 31 -1 ]
  }
}
Shape {
  appearance Appearance { material Material { diffuseColor 0.74 0.75 0.77 } }
  geometry IndexedFaceSet {
    coord Coordinate { point [
      1.2795 0.4921 0.0000,
      1.2571 0.6051 0.0000,
      1.1930 0.7009 0.0000,
      1.0972 0.7649 0.0000,
      0.9843 0.7874 0.0000,
      0.8713 0.7649 0.0000,
      0.7755 0.7009 0.0000,
      0.7115 0.6051 0.0000,
      0.6890 0.4921 0.0000,
      0.7115 0.3791 0.0000,
      0.7755 0.2833 0.0000,
      0.8713 0.2193 0.0000,
      0.9843 0.1969 0.0000,
      1.0972 0.2193 0.0000,
      1.1930 0.2833 0.0000,
      1.2571 0.3791 0.0000,
      1.2795 0.4921 0.0315,
      1.2571 0.6051 0.0315,
      1.1930 0.7009 0.0315,
      1.0972 0.7649 0.0315,
      0.9843 0.7874 0.0315,
      0.8713 0.7649 0.0315,
      0.7755 0.7009 0.0315,
      0.7115 0.6051 0.0315,
      0.6890 0.4921 0.0315,
      0.7115 0.3791 0.0315,
      0.7755 0.2833 0.0315,
      0.8713 0.2193 0.0315,
      0.9843 0.1969 0.0315,
      1.0972 0.2193 0.0315,
      1.1930 0.2833 0.0315,
      1.2571 0.3791 0.0315 ] }
    coordIndex [
      0 1 17 16 -1,
      1 2 18 17 -1,
      2 3 19 18 -1,
      3 4 20 19 -1,
      4 5 21 20 -1,
      5 6 22 21 -1,
      6 7 23 22 -1,
      7 8 24 23 -1,
      8 9 25 24 -1,
      9 10 26 25 -1,
      10 11 27 26 -1,
      11 12 28 27 -1,
      12 13 29 28 -1,
      13 14 30 29 -1,
      14 15 31 30 -1,
      15 0 16 31 -1,
      15 14 13 12 11 10 9 8 7 6 5 4 3 2 1 0 -1,
      16 17 18 19 20 21 22 23 24 25 26 27 28 29 30 31 -1 ]
  }
}
