#VRML V2.0 utf8
# encapsulamento qfn, 3.50 x 3.50 x 1.00 mm
Shape {
  appearance Appearance { material Material { diffuseColor 0.09 0.09 0.1 } }
  geometry IndexedFaceSet {
    coord Coordinate { point [
      -0.6890 -0.6890 0.0118,
      0.6890 -0.6890 0.0118,
      0.6890 0.6890 0.0118,
      -0.6890 0.6890 0.0118,
      -0.6890 -0.6890 0.4055,
      0.6890 -0.6890 0.4055,
      0.6890 0.6890 0.4055,
      -0.6890 0.6890 0.4055 ] }
    coordIndex [
      0 3 2 1 -1,
      4 5 6 7 -1,
      0 1 5 4 -1,
      1 2 6 5 -1,
      2 3 7 6 -1,
      3 0 4 7 -1 ]
  }
}
Shape {
  appearance Appearance { material Material { diffuseColor 0.72 0.73 0.75 } }
  geometry IndexedFaceSet {
    coord Coordinate { point [
      -0.6890 -0.6890 0.0000,
      -0.5906 -0.6890 0.0000,
      -0.5906 -0.5512 0.0000,
      -0.6890 -0.5512 0.0000,
      -0.6890 -0.6890 0.0197,
      -0.5906 -0.6890 0.0197,
      -0.5906 -0.5512 0.0197,
      -0.6890 -0.5512 0.0197 ] }
    coordIndex [
      0 3 2 1 -1,
      4 5 6 7 -1,
      0 1 5 4 -1,
      1 2 6 5 -1,
      2 3 7 6 -1,
      3 0 4 7 -1 ]
  }
}
Shape {
  appearance Appearance { material Material { diffuseColor 0.72 0.73 0.75 } }
  geometry IndexedFaceSet {
    coord Coordinate { point [
      -0.6890 0.5512 0.0000,
      -0.5906 0.5512 0.0000,
      -0.5906 0.6890 0.0000,
      -0.6890 0.6890 0.0000,
      -0.6890 0.5512 0.0197,
      -0.5906 0.5512 0.0197,
      -0.5906 0.6890 0.0197,
      -0.6890 0.6890 0.0197 ] }
    coordIndex [
      0 3 2 1 -1,
      4 5 6 7 -1,
      0 1 5 4 -1,
      1 2 6 5 -1,
      2 3 7 6 -1,
      3 0 4 7 -1 ]
  }
}
Shape {
  appearance Appearance { material Material { diffuseColor 0.72 0.73 0.75 } }
  geometry IndexedFaceSet {
    coord Coordinate { point [
      -0.4921 -0.6890 0.0000,
      -0.3937 -0.6890 0.0000,
      -0.3937 -0.5512 0.0000,
      -0.4921 -0.5512 0.0000,
      -0.4921 -0.6890 0.0197,
      -0.3937 -0.6890 0.0197,
      -0.3937 -0.5512 0.0197,
      -0.4921 -0.5512 0.0197 ] }
    coordIndex [
      0 3 2 1 -1,
      4 5 6 7 -1,
      0 1 5 4 -1,
      1 2 6 5 -1,
      2 3 7 6 -1,
      3 0 4 7 -1 ]
  }
}
Shape {
  appearance Appearance { material Material { diffuseColor 0.72 0.73 0.75 } }
  geometry IndexedFaceSet {
    coord Coordinate { point [
      -0.4921 0.5512 0.0000,
      -0.3937 0.5512 0.0000,
      -0.3937 0.6890 0.0000,
      -0.4921 0.6890 0.0000,
      -0.4921 0.5512 0.0197,
      -0.3937 0.5512 0.0197,
      -0.3937 0.6890 0.0197,
      -0.4921 0.6890 0.0197 ] }
    coordIndex [
      0 3 2 1 -1,
      4 5 6 7 -1,
      0 1 5 4 -1,
      1 2 6 5 -1,
      2 3 7 6 -1,
      3 0 4 7 -1 ]
  }
}
Shape {
  appearance Appearance { material Material { diffuseColor 0.72 0.73 0.75 } }
  geometry IndexedFaceSet {
    coord Coordinate { point [
      -0.2953 -0.6890 0.0000,
      -0.1969 -0.6890 0.0000,
      -0.1969 -0.5512 0.0000,
      -0.2953 -0.5512 0.0000,
      -0.2953 -0.6890 0.0197,
      -0.1969 -0.6890 0.0197,
      -0.1969 -0.5512 0.0197,
      -0.2953 -0.5512 0.0197 ] }
    coordIndex [
      0 3 2 1 -1,
      4 5 6 7 -1,
      0 1 5 4 -1,
      1 2 6 5 -1,
      2 3 7 6 -1,
      3 0 4 7 -1 ]
  }
}
Shape {
  appearance Appearance { material Material { diffuseColor 0.72 0.73 0.75 } }
  geometry IndexedFaceSet {
    coord Coordinate { point [
      -0.2953 0.5512 0.0000,
      -0.1969 0.5512 0.0000,
      -0.1969 0.6890 0.0000,
      -0.2953 0.6890 0.0000,
      -0.2953 0.5512 0.0197,
      -0.1969 0.5512 0.0197,
      -0.1969 0.6890 0.0197,
      -0.2953 0.6890 0.0197 ] }
    coordIndex [
      0 3 2 1 -1,
      4 5 6 7 -1,
      0 1 5 4 -1,
      1 2 6 5 -1,
      2 3 7 6 -1,
      3 0 4 7 -1 ]
  }
}
Shape {
  appearance Appearance { material Material { diffuseColor 0.72 0.73 0.75 } }
  geometry IndexedFaceSet {
    coord Coordinate { point [
      -0.0984 -0.6890 0.0000,
      0.0000 -0.6890 0.0000,
      0.0000 -0.5512 0.0000,
      -0.0984 -0.5512 0.0000,
      -0.0984 -0.6890 0.0197,
      0.0000 -0.6890 0.0197,
      0.0000 -0.5512 0.0197,
      -0.0984 -0.5512 0.0197 ] }
    coordIndex [
      0 3 2 1 -1,
      4 5 6 7 -1,
      0 1 5 4 -1,
      1 2 6 5 -1,
      2 3 7 6 -1,
      3 0 4 7 -1 ]
  }
}
Shape {
  appearance Appearance { material Material { diffuseColor 0.72 0.73 0.75 } }
  geometry IndexedFaceSet {
    coord Coordinate { point [
      -0.0984 0.5512 0.0000,
      0.0000 0.5512 0.0000,
      0.0000 0.6890 0.0000,
      -0.0984 0.6890 0.0000,
      -0.0984 0.5512 0.0197,
      0.0000 0.5512 0.0197,
      0.0000 0.6890 0.0197,
      -0.0984 0.6890 0.0197 ] }
    coordIndex [
      0 3 2 1 -1,
      4 5 6 7 -1,
      0 1 5 4 -1,
      1 2 6 5 -1,
      2 3 7 6 -1,
      3 0 4 7 -1 ]
  }
}
Shape {
  appearance Appearance { material Material { diffuseColor 0.72 0.73 0.75 } }
  geometry IndexedFaceSet {
    coord Coordinate { point [
      0.0984 -0.6890 0.0000,
      0.1969 -0.6890 0.0000,
      0.1969 -0.5512 0.0000,
      0.0984 -0.5512 0.0000,
      0.0984 -0.6890 0.0197,
      0.1969 -0.6890 0.0197,
      0.1969 -0.5512 0.0197,
      0.0984 -0.5512 0.0197 ] }
    coordIndex [
      0 3 2 1 -1,
      4 5 6 7 -1,
      0 1 5 4 -1,
      1 2 6 5 -1,
      2 3 7 6 -1,
      3 0 4 7 -1 ]
  }
}
Shape {
  appearance Appearance { material Material { diffuseColor 0.72 0.73 0.75 } }
  geometry IndexedFaceSet {
    coord Coordinate { point [
      0.0984 0.5512 0.0000,
      0.1969 0.5512 0.0000,
      0.1969 0.6890 0.0000,
      0.0984 0.6890 0.0000,
      0.0984 0.5512 0.0197,
      0.1969 0.5512 0.0197,
      0.1969 0.6890 0.0197,
      0.0984 0.6890 0.0197 ] }
    coordIndex [
      0 3 2 1 -1,
      4 5 6 7 -1,
      0 1 5 4 -1,
      1 2 6 5 -1,
      2 3 7 6 -1,
      3 0 4 7 -1 ]
  }
}
Shape {
  appearance Appearance { material Material { diffuseColor 0.72 0.73 0.75 } }
  geometry IndexedFaceSet {
    coord Coordinate { point [
      0.2953 -0.6890 0.0000,
      0.3937 -0.6890 0.0000,
      0.3937 -0.5512 0.0000,
      0.2953 -0.5512 0.0000,
      0.2953 -0.6890 0.0197,
      0.3937 -0.6890 0.0197,
      0.3937 -0.5512 0.0197,
      0.2953 -0.5512 0.0197 ] }
    coordIndex [
      0 3 2 1 -1,
      4 5 6 7 -1,
      0 1 5 4 -1,
      1 2 6 5 -1,
      2 3 7 6 -1,
      3 0 4 7 -1 ]
  }
}
Shape {
  appearance Appearance { material Material { diffuseColor 0.72 0.73 0.75 } }
  geometry IndexedFaceSet {
    coord Coordinate { point [
      0.2953 0.5512 0.0000,
      0.3937 0.5512 0.0000,
      0.3937 0.6890 0.0000,
      0.2953 0.6890 0.0000,
      0.2953 0.5512 0.0197,
      0.3937 0.5512 0.0197,
      0.3937 0.6890 0.0197,
      0.2953 0.6890 0.0197 ] }
    coordIndex [
      0 3 2 1 -1,
      4 5 6 7 -1,
      0 1 5 4 -1,
      1 2 6 5 -1,
      2 3 7 6 -1,
      3 0 4 7 -1 ]
  }
}
Shape {
  appearance Appearance { material Material { diffuseColor 0.72 0.73 0.75 } }
  geometry IndexedFaceSet {
    coord Coordinate { point [
      0.4921 -0.6890 0.0000,
      0.5906 -0.6890 0.0000,
      0.5906 -0.5512 0.0000,
      0.4921 -0.5512 0.0000,
      0.4921 -0.6890 0.0197,
      0.5906 -0.6890 0.0197,
      0.5906 -0.5512 0.0197,
      0.4921 -0.5512 0.0197 ] }
    coordIndex [
      0 3 2 1 -1,
      4 5 6 7 -1,
      0 1 5 4 -1,
      1 2 6 5 -1,
      2 3 7 6 -1,
      3 0 4 7 -1 ]
  }
}
Shape {
  appearance Appearance { material Material { diffuseColor 0.72 0.73 0.75 } }
  geometry IndexedFaceSet {
    coord Coordinate { point [
      0.4921 0.5512 0.0000,
      0.5906 0.5512 0.0000,
      0.5906 0.6890 0.0000,
      0.4921 0.6890 0.0000,
      0.4921 0.5512 0.0197,
      0.5906 0.5512 0.0197,
      0.5906 0.6890 0.0197,
      0.4921 0.6890 0.0197 ] }
    coordIndex [
      0 3 2 1 -1,
      4 5 6 7 -1,
      0 1 5 4 -1,
      1 2 6 5 -1,
      2 3 7 6 -1,
      3 0 4 7 -1 ]
  }
}
Shape {
  appearance Appearance { material Material { diffuseColor 0.72 0.73 0.75 } }
  geometry IndexedFaceSet {
    coord Coordinate { point [
      -0.6890 -0.6890 0.0000,
      -0.5512 -0.6890 0.0000,
      -0.5512 -0.5906 0.0000,
      -0.6890 -0.5906 0.0000,
      -0.6890 -0.6890 0.0197,
      -0.5512 -0.6890 0.0197,
      -0.5512 -0.5906 0.0197,
      -0.6890 -0.5906 0.0197 ] }
    coordIndex [
      0 3 2 1 -1,
      4 5 6 7 -1,
      0 1 5 4 -1,
      1 2 6 5 -1,
      2 3 7 6 -1,
      3 0 4 7 -1 ]
  }
}
Shape {
  appearance Appearance { material Material { diffuseColor 0.72 0.73 0.75 } }
  geometry IndexedFaceSet {
    coord Coordinate { point [
      0.5512 -0.6890 0.0000,
      0.6890 -0.6890 0.0000,
      0.6890 -0.5906 0.0000,
      0.5512 -0.5906 0.0000,
      0.5512 -0.6890 0.0197,
      0.6890 -0.6890 0.0197,
      0.6890 -0.5906 0.0197,
      0.5512 -0.5906 0.0197 ] }
    coordIndex [
      0 3 2 1 -1,
      4 5 6 7 -1,
      0 1 5 4 -1,
      1 2 6 5 -1,
      2 3 7 6 -1,
      3 0 4 7 -1 ]
  }
}
Shape {
  appearance Appearance { material Material { diffuseColor 0.72 0.73 0.75 } }
  geometry IndexedFaceSet {
    coord Coordinate { point [
      -0.6890 -0.4921 0.0000,
      -0.5512 -0.4921 0.0000,
      -0.5512 -0.3937 0.0000,
      -0.6890 -0.3937 0.0000,
      -0.6890 -0.4921 0.0197,
      -0.5512 -0.4921 0.0197,
      -0.5512 -0.3937 0.0197,
      -0.6890 -0.3937 0.0197 ] }
    coordIndex [
      0 3 2 1 -1,
      4 5 6 7 -1,
      0 1 5 4 -1,
      1 2 6 5 -1,
      2 3 7 6 -1,
      3 0 4 7 -1 ]
  }
}
Shape {
  appearance Appearance { material Material { diffuseColor 0.72 0.73 0.75 } }
  geometry IndexedFaceSet {
    coord Coordinate { point [
      0.5512 -0.4921 0.0000,
      0.6890 -0.4921 0.0000,
      0.6890 -0.3937 0.0000,
      0.5512 -0.3937 0.0000,
      0.5512 -0.4921 0.0197,
      0.6890 -0.4921 0.0197,
      0.6890 -0.3937 0.0197,
      0.5512 -0.3937 0.0197 ] }
    coordIndex [
      0 3 2 1 -1,
      4 5 6 7 -1,
      0 1 5 4 -1,
      1 2 6 5 -1,
      2 3 7 6 -1,
      3 0 4 7 -1 ]
  }
}
Shape {
  appearance Appearance { material Material { diffuseColor 0.72 0.73 0.75 } }
  geometry IndexedFaceSet {
    coord Coordinate { point [
      -0.6890 -0.2953 0.0000,
      -0.5512 -0.2953 0.0000,
      -0.5512 -0.1969 0.0000,
      -0.6890 -0.1969 0.0000,
      -0.6890 -0.2953 0.0197,
      -0.5512 -0.2953 0.0197,
      -0.5512 -0.1969 0.0197,
      -0.6890 -0.1969 0.0197 ] }
    coordIndex [
      0 3 2 1 -1,
      4 5 6 7 -1,
      0 1 5 4 -1,
      1 2 6 5 -1,
      2 3 7 6 -1,
      3 0 4 7 -1 ]
  }
}
Shape {
  appearance Appearance { material Material { diffuseColor 0.72 0.73 0.75 } }
  geometry IndexedFaceSet {
    coord Coordinate { point [
      0.5512 -0.2953 0.0000,
      0.6890 -0.2953 0.0000,
      0.6890 -0.1969 0.0000,
      0.5512 -0.1969 0.0000,
      0.5512 -0.2953 0.0197,
      0.6890 -0.2953 0.0197,
      0.6890 -0.1969 0.0197,
      0.5512 -0.1969 0.0197 ] }
    coordIndex [
      0 3 2 1 -1,
      4 5 6 7 -1,
      0 1 5 4 -1,
      1 2 6 5 -1,
      2 3 7 6 -1,
      3 0 4 7 -1 ]
  }
}
Shape {
  appearance Appearance { material Material { diffuseColor 0.72 0.73 0.75 } }
  geometry IndexedFaceSet {
    coord Coordinate { point [
      -0.6890 -0.0984 0.0000,
      -0.5512 -0.0984 0.0000,
      -0.5512 0.0000 0.0000,
      -0.6890 0.0000 0.0000,
      -0.6890 -0.0984 0.0197,
      -0.5512 -0.0984 0.0197,
      -0.5512 0.0000 0.0197,
      -0.6890 0.0000 0.0197 ] }
    coordIndex [
      0 3 2 1 -1,
      4 5 6 7 -1,
      0 1 5 4 -1,
      1 2 6 5 -1,
      2 3 7 6 -1,
      3 0 4 7 -1 ]
  }
}
Shape {
  appearance Appearance { material Material { diffuseColor 0.72 0.73 0.75 } }
  geometry IndexedFaceSet {
    coord Coordinate { point [
      0.5512 -0.0984 0.0000,
      0.6890 -0.0984 0.0000,
      0.6890 0.0000 0.0000,
      0.5512 0.0000 0.0000,
      0.5512 -0.0984 0.0197,
      0.6890 -0.0984 0.0197,
      0.6890 0.0000 0.0197,
      0.5512 0.0000 0.0197 ] }
    coordIndex [
      0 3 2 1 -1,
      4 5 6 7 -1,
      0 1 5 4 -1,
      1 2 6 5 -1,
      2 3 7 6 -1,
      3 0 4 7 -1 ]
  }
}
Shape {
  appearance Appearance { material Material { diffuseColor 0.72 0.73 0.75 } }
  geometry IndexedFaceSet {
    coord Coordinate { point [
      -0.6890 0.0984 0.0000,
      -0.5512 0.0984 0.0000,
      -0.5512 0.1969 0.0000,
      -0.6890 0.1969 0.0000,
      -0.6890 0.0984 0.0197,
      -0.5512 0.0984 0.0197,
      -0.5512 0.1969 0.0197,
      -0.6890 0.1969 0.0197 ] }
    coordIndex [
      0 3 2 1 -1,
      4 5 6 7 -1,
      0 1 5 4 -1,
      1 2 6 5 -1,
      2 3 7 6 -1,
      3 0 4 7 -1 ]
  }
}
Shape {
  appearance Appearance { material Material { diffuseColor 0.72 0.73 0.75 } }
  geometry IndexedFaceSet {
    coord Coordinate { point [
      0.5512 0.0984 0.0000,
      0.6890 0.0984 0.0000,
      0.6890 0.1969 0.0000,
      0.5512 0.1969 0.0000,
      0.5512 0.0984 0.0197,
      0.6890 0.0984 0.0197,
      0.6890 0.1969 0.0197,
      0.5512 0.1969 0.0197 ] }
    coordIndex [
      0 3 2 1 -1,
      4 5 6 7 -1,
      0 1 5 4 -1,
      1 2 6 5 -1,
      2 3 7 6 -1,
      3 0 4 7 -1 ]
  }
}
Shape {
  appearance Appearance { material Material { diffuseColor 0.72 0.73 0.75 } }
  geometry IndexedFaceSet {
    coord Coordinate { point [
      -0.6890 0.2953 0.0000,
      -0.5512 0.2953 0.0000,
      -0.5512 0.3937 0.0000,
      -0.6890 0.3937 0.0000,
      -0.6890 0.2953 0.0197,
      -0.5512 0.2953 0.0197,
      -0.5512 0.3937 0.0197,
      -0.6890 0.3937 0.0197 ] }
    coordIndex [
      0 3 2 1 -1,
      4 5 6 7 -1,
      0 1 5 4 -1,
      1 2 6 5 -1,
      2 3 7 6 -1,
      3 0 4 7 -1 ]
  }
}
Shape {
  appearance Appearance { material Material { diffuseColor 0.72 0.73 0.75 } }
  geometry IndexedFaceSet {
    coord Coordinate { point [
      0.5512 0.2953 0.0000,
      0.6890 0.2953 0.0000,
      0.6890 0.3937 0.0000,
      0.5512 0.3937 0.0000,
      0.5512 0.2953 0.0197,
      0.6890 0.2953 0.0197,
      0.6890 0.3937 0.0197,
      0.5512 0.3937 0.0197 ] }
    coordIndex [
      0 3 2 1 -1,
      4 5 6 7 -1,
      0 1 5 4 -1,
      1 2 6 5 -1,
      2 3 7 6 -1,
      3 0 4 7 -1 ]
  }
}
Shape {
  appearance Appearance { material Material { diffuseColor 0.72 0.73 0.75 } }
  geometry IndexedFaceSet {
    coord Coordinate { point [
      -0.6890 0.4921 0.0000,
      -0.5512 0.4921 0.0000,
      -0.5512 0.5906 0.0000,
      -0.6890 0.5906 0.0000,
      -0.6890 0.4921 0.0197,
      -0.5512 0.4921 0.0197,
      -0.5512 0.5906 0.0197,
      -0.6890 0.5906 0.0197 ] }
    coordIndex [
      0 3 2 1 -1,
      4 5 6 7 -1,
      0 1 5 4 -1,
      1 2 6 5 -1,
      2 3 7 6 -1,
      3 0 4 7 -1 ]
  }
}
Shape {
  appearance Appearance { material Material { diffuseColor 0.72 0.73 0.75 } }
  geometry IndexedFaceSet {
    coord Coordinate { point [
      0.5512 0.4921 0.0000,
      0.6890 0.4921 0.0000,
      0.6890 0.5906 0.0000,
      0.5512 0.5906 0.0000,
      0.5512 0.4921 0.0197,
      0.6890 0.4921 0.0197,
      0.6890 0.5906 0.0197,
      0.5512 0.5906 0.0197 ] }
    coordIndex [
      0 3 2 1 -1,
      4 5 6 7 -1,
      0 1 5 4 -1,
      1 2 6 5 -1,
      2 3 7 6 -1,
      3 0 4 7 -1 ]
  }
}
Shape {
  appearance Appearance { material Material { diffuseColor 0.45 0.45 0.47 } }
  geometry IndexedFaceSet {
    coord Coordinate { point [
      -0.4646 -0.5512 0.3937,
      -0.4811 -0.5003 0.3937,
      -0.5244 -0.4688 0.3937,
      -0.5779 -0.4688 0.3937,
      -0.6213 -0.5003 0.3937,
      -0.6378 -0.5512 0.3937,
      -0.6213 -0.6021 0.3937,
      -0.5779 -0.6336 0.3937,
      -0.5244 -0.6336 0.3937,
      -0.4811 -0.6021 0.3937,
      -0.4646 -0.5512 0.4016,
      -0.4811 -0.5003 0.4016,
      -0.5244 -0.4688 0.4016,
      -0.5779 -0.4688 0.4016,
      -0.6213 -0.5003 0.4016,
      -0.6378 -0.5512 0.4016,
      -0.6213 -0.6021 0.4016,
      -0.5779 -0.6336 0.4016,
      -0.5244 -0.6336 0.4016,
      -0.4811 -0.6021 0.4016 ] }
    coordIndex [
      0 1 11 10 -1,
      1 2 12 11 -1,
      2 3 13 12 -1,
      3 4 14 13 -1,
      4 5 15 14 -1,
      5 6 16 15 -1,
      6 7 17 16 -1,
      7 8 18 17 -1,
      8 9 19 18 -1,
      9 0 10 19 -1,
      9 8 7 6 5 4 3 2 1 0 -1,
      10 11 12 13 14 15 16 17 18 19 -1 ]
  }
}
