#VRML V2.0 utf8
# encapsulamento qfn, 1.00 x 2.50 x 0.40 mm
Shape {
  appearance Appearance { material Material { diffuseColor 0.09 0.09 0.1 } }
  geometry IndexedFaceSet {
    coord Coordinate { point [
      -0.1969 -0.4921 0.0118,
      0.1969 -0.4921 0.0118,
      0.1969 0.4921 0.0118,
      -0.1969 0.4921 0.0118,
      -0.1969 -0.4921 0.1693,
      0.1969 -0.4921 0.1693,
      0.1969 0.4921 0.1693,
      -0.1969 0.4921 0.1693 ] }
    coordIndex [
      0 3 2 1 -1,
      4 5 6 7 -1,
      0 1 5 4 -1,
      1 2 6 5 -1,
      2 3 7 6 -1,
      3 0 4 7 -1 ]
  }
}
Shape {
  appearance Appearance { material Material { diffuseColor 0.72 0.73 0.75 } }
  geometry IndexedFaceSet {
    coord Coordinate { point [
      -0.1969 -0.4921 0.0000,
      -0.1181 -0.4921 0.0000,
      -0.1181 -0.3504 0.0000,
      -0.1969 -0.3504 0.0000,
      -0.1969 -0.4921 0.0197,
      -0.1181 -0.4921 0.0197,
      -0.1181 -0.3504 0.0197,
      -0.1969 -0.3504 0.0197 ] }
    coordIndex [
      0 3 2 1 -1,
      4 5 6 7 -1,
      0 1 5 4 -1,
      1 2 6 5 -1,
      2 3 7 6 -1,
      3 0 4 7 -1 ]
  }
}
Shape {
  appearance Appearance { material Material { diffuseColor 0.72 0.73 0.75 } }
  geometry IndexedFaceSet {
    coord Coordinate { point [
      -0.1969 0.3504 0.0000,
      -0.1181 0.3504 0.0000,
      -0.1181 0.4921 0.0000,
      -0.1969 0.4921 0.0000,
      -0.1969 0.3504 0.0197,
      -0.1181 0.3504 0.0197,
      -0.1181 0.4921 0.0197,
      -0.1969 0.4921 0.0197 ] }
    coordIndex [
      0 3 2 1 -1,
      4 5 6 7 -1,
      0 1 5 4 -1,
      1 2 6 5 -1,
      2 3 7 6 -1,
      3 0 4 7 -1 ]
  }
}
Shape {
  appearance Appearance { material Material { diffuseColor 0.72 0.73 0.75 } }
  geometry IndexedFaceSet {
    coord Coordinate { point [
      -0.0000 -0.4921 0.0000,
      0.0787 -0.4921 0.0000,
      0.0787 -0.3504 0.0000,
      -0.0000 -0.3504 0.0000,
      -0.0000 -0.4921 0.0197,
      0.0787 -0.4921 0.0197,
      0.0787 -0.3504 0.0197,
      -0.0000 -0.3504 0.0197 ] }
    coordIndex [
      0 3 2 1 -1,
      4 5 6 7 -1,
      0 1 5 4 -1,
      1 2 6 5 -1,
      2 3 7 6 -1,
      3 0 4 7 -1 ]
  }
}
Shape {
  appearance Appearance { material Material { diffuseColor 0.72 0.73 0.75 } }
  geometry IndexedFaceSet {
    coord Coordinate { point [
      -0.0000 0.3504 0.0000,
      0.0787 0.3504 0.0000,
      0.0787 0.4921 0.0000,
      -0.0000 0.4921 0.0000,
      -0.0000 0.3504 0.0197,
      0.0787 0.3504 0.0197,
      0.0787 0.4921 0.0197,
      -0.0000 0.4921 0.0197 ] }
    coordIndex [
      0 3 2 1 -1,
      4 5 6 7 -1,
      0 1 5 4 -1,
      1 2 6 5 -1,
      2 3 7 6 -1,
      3 0 4 7 -1 ]
  }
}
Shape {
  appearance Appearance { material Material { diffuseColor 0.72 0.73 0.75 } }
  geometry IndexedFaceSet {
    coord Coordinate { point [
      -0.1969 -0.4921 0.0000,
      -0.0551 -0.4921 0.0000,
      -0.0551 -0.4134 0.0000,
      -0.1969 -0.4134 0.0000,
      -0.1969 -0.4921 0.0197,
      -0.0551 -0.4921 0.0197,
      -0.0551 -0.4134 0.0197,
      -0.1969 -0.4134 0.0197 ] }
    coordIndex [
      0 3 2 1 -1,
      4 5 6 7 -1,
      0 1 5 4 -1,
      1 2 6 5 -1,
      2 3 7 6 -1,
      3 0 4 7 -1 ]
  }
}
Shape {
  appearance Appearance { material Material { diffuseColor 0.72 0.73 0.75 } }
  geometry IndexedFaceSet {
    coord Coordinate { point [
      0.0551 -0.4921 0.0000,
      0.1969 -0.4921 0.0000,
      0.1969 -0.4134 0.0000,
      0.0551 -0.4134 0.0000,
      0.0551 -0.4921 0.0197,
      0.1969 -0.4921 0.0197,
      0.1969 -0.4134 0.0197,
      0.0551 -0.4134 0.0197 ] }
    coordIndex [
      0 3 2 1 -1,
      4 5 6 7 -1,
      0 1 5 4 -1,
      1 2 6 5 -1,
      2 3 7 6 -1,
      3 0 4 7 -1 ]
  }
}
Shape {
  appearance Appearance { material Material { diffuseColor 0.72 0.73 0.75 } }
  geometry IndexedFaceSet {
    coord Coordinate { point [
      -0.1969 -0.2953 0.0000,
      -0.0551 -0.2953 0.0000,
      -0.0551 -0.2165 0.0000,
      -0.1969 -0.2165 0.0000,
      -0.1969 -0.2953 0.0197,
      -0.0551 -0.2953 0.0197,
      -0.0551 -0.2165 0.0197,
      -0.1969 -0.2165 0.0197 ] }
    coordIndex [
      0 3 2 1 -1,
      4 5 6 7 -1,
      0 1 5 4 -1,
      1 2 6 5 -1,
      2 3 7 6 -1,
      3 0 4 7 -1 ]
  }
}
Shape {
  appearance Appearance { material Material { diffuseColor 0.72 0.73 0.75 } }
  geometry IndexedFaceSet {
    coord Coordinate { point [
      0.0551 -0.2953 0.0000,
      0.1969 -0.2953 0.0000,
      0.1969 -0.2165 0.0000,
      0.0551 -0.2165 0.0000,
      0.0551 -0.2953 0.0197,
      0.1969 -0.2953 0.0197,
      0.1969 -0.2165 0.0197,
      0.0551 -0.2165 0.0197 ] }
    coordIndex [
      0 3 2 1 -1,
      4 5 6 7 -1,
      0 1 5 4 -1,
      1 2 6 5 -1,
      2 3 7 6 -1,
      3 0 4 7 -1 ]
  }
}
Shape {
  appearance Appearance { material Material { diffuseColor 0.72 0.73 0.75 } }
  geometry IndexedFaceSet {
    coord Coordinate { point [
      -0.1969 -0.0984 0.0000,
      -0.0551 -0.0984 0.0000,
      -0.0551 -0.0197 0.0000,
      -0.1969 -0.0197 0.0000,
      -0.1969 -0.0984 0.0197,
      -0.0551 -0.0984 0.0197,
      -0.0551 -0.0197 0.0197,
      -0.1969 -0.0197 0.0197 ] }
    coordIndex [
      0 3 2 1 -1,
      4 5 6 7 -1,
      0 1 5 4 -1,
      1 2 6 5 -1,
      2 3 7 6 -1,
      3 0 4 7 -1 ]
  }
}
Shape {
  appearance Appearance { material Material { diffuseColor 0.72 0.73 0.75 } }
  geometry IndexedFaceSet {
    coord Coordinate { point [
      0.0551 -0.0984 0.0000,
      0.1969 -0.0984 0.0000,
      0.1969 -0.0197 0.0000,
      0.0551 -0.0197 0.0000,
      0.0551 -0.0984 0.0197,
      0.1969 -0.0984 0.0197,
      0.1969 -0.0197 0.0197,
      0.0551 -0.0197 0.0197 ] }
    coordIndex [
      0 3 2 1 -1,
      4 5 6 7 -1,
      0 1 5 4 -1,
      1 2 6 5 -1,
      2 3 7 6 -1,
      3 0 4 7 -1 ]
  }
}
Shape {
  appearance Appearance { material Material { diffuseColor 0.72 0.73 0.75 } }
  geometry IndexedFaceSet {
    coord Coordinate { point [
      -0.1969 0.0984 0.0000,
      -0.0551 0.0984 0.0000,
      -0.0551 0.1772 0.0000,
      -0.1969 0.1772 0.0000,
      -0.1969 0.0984 0.0197,
      -0.0551 0.0984 0.0197,
      -0.0551 0.1772 0.0197,
      -0.1969 0.1772 0.0197 ] }
    coordIndex [
      0 3 2 1 -1,
      4 5 6 7 -1,
      0 1 5 4 -1,
      1 2 6 5 -1,
      2 3 7 6 -1,
      3 0 4 7 -1 ]
  }
}
Shape {
  appearance Appearance { material Material { diffuseColor 0.72 0.73 0.75 } }
  geometry IndexedFaceSet {
    coord Coordinate { point [
      0.0551 0.0984 0.0000,
      0.1969 0.0984 0.0000,
      0.1969 0.1772 0.0000,
      0.0551 0.1772 0.0000,
      0.0551 0.0984 0.0197,
      0.1969 0.0984 0.0197,
      0.1969 0.1772 0.0197,
      0.0551 0.1772 0.0197 ] }
    coordIndex [
      0 3 2 1 -1,
      4 5 6 7 -1,
      0 1 5 4 -1,
      1 2 6 5 -1,
      2 3 7 6 -1,
      3 0 4 7 -1 ]
  }
}
Shape {
  appearance Appearance { material Material { diffuseColor 0.72 0.73 0.75 } }
  geometry IndexedFaceSet {
    coord Coordinate { point [
      -0.1969 0.2953 0.0000,
      -0.0551 0.2953 0.0000,
      -0.0551 0.3740 0.0000,
      -0.1969 0.3740 0.0000,
      -0.1969 0.2953 0.0197,
      -0.0551 0.2953 0.0197,
      -0.0551 0.3740 0.0197,
      -0.1969 0.3740 0.0197 ] }
    coordIndex [
      0 3 2 1 -1,
      4 5 6 7 -1,
      0 1 5 4 -1,
      1 2 6 5 -1,
      2 3 7 6 -1,
      3 0 4 7 -1 ]
  }
}
Shape {
  appearance Appearance { material Material { diffuseColor 0.72 0.73 0.75 } }
  geometry IndexedFaceSet {
    coord Coordinate { point [
      0.0551 0.2953 0.0000,
      0.1969 0.2953 0.0000,
      0.1969 0.3740 0.0000,
      0.0551 0.3740 0.0000,
      0.0551 0.2953 0.0197,
      0.1969 0.2953 0.0197,
      0.1969 0.3740 0.0197,
      0.0551 0.3740 0.0197 ] }
    coordIndex [
      0 3 2 1 -1,
      4 5 6 7 -1,
      0 1 5 4 -1,
      1 2 6 5 -1,
      2 3 7 6 -1,
      3 0 4 7 -1 ]
  }
}
Shape {
  appearance Appearance { material Material { diffuseColor 0.45 0.45 0.47 } }
  geometry IndexedFaceSet {
    coord Coordinate { point [
      -0.0098 -0.3543 0.1575,
      -0.0192 -0.3254 0.1575,
      -0.0438 -0.3075 0.1575,
      -0.0743 -0.3075 0.1575,
      -0.0989 -0.3254 0.1575,
      -0.1083 -0.3543 0.1575,
      -0.0989 -0.3833 0.1575,
      -0.0743 -0.4011 0.1575,
      -0.0438 -0.4011 0.1575,
      -0.0192 -0.3833 0.1575,
      -0.0098 -0.3543 0.1654,
      -0.0192 -0.3254 0.1654,
      -0.0438 -0.3075 0.1654,
      -0.0743 -0.3075 0.1654,
      -0.0989 -0.3254 0.1654,
      -0.1083 -0.3543 0.1654,
      -0.0989 -0.3833 0.1654,
      -0.0743 -0.4011 0.1654,
      -0.0438 -0.4011 0.1654,
      -0.0192 -0.3833 0.1654 ] }
    coordIndex [
      0 1 11 10 -1,
      1 2 12 11 -1,
      2 3 13 12 -1,
      3 4 14 13 -1,
      4 5 15 14 -1,
      5 6 16 15 -1,
      6 7 17 16 -1,
      7 8 18 17 -1,
      8 9 19 18 -1,
      9 0 10 19 -1,
      9 8 7 6 5 4 3 2 1 0 -1,
      10 11 12 13 14 15 16 17 18 19 -1 ]
  }
}
