#VRML V2.0 utf8
# encapsulamento wlp, 0.78 x 0.78 x 0.50 mm
Shape {
  appearance Appearance { material Material { diffuseColor 0.24 0.21 0.28 } }
  geometry IndexedFaceSet {
    coord Coordinate { point [
      -0.1535 -0.1535 0.0472,
      0.1535 -0.1535 0.0472,
      0.1535 0.1535 0.0472,
      -0.1535 0.1535 0.0472,
      -0.1535 -0.1535 0.1969,
      0.1535 -0.1535 0.1969,
      0.1535 0.1535 0.1969,
      -0.1535 0.1535 0.1969 ] }
    coordIndex [
      0 3 2 1 -1,
      4 5 6 7 -1,
      0 1 5 4 -1,
      1 2 6 5 -1,
      2 3 7 6 -1,
      3 0 4 7 -1 ]
  }
}
Shape {
  appearance Appearance { material Material { diffuseColor 0.72 0.73 0.75 } }
  geometry IndexedFaceSet {
    coord Coordinate { point [
      -0.0315 -0.0748 0.0000,
      -0.0442 -0.0442 0.0000,
      -0.0748 -0.0315 0.0000,
      -0.1054 -0.0442 0.0000,
      -0.1181 -0.0748 0.0000,
      -0.1054 -0.1054 0.0000,
      -0.0748 -0.1181 0.0000,
      -0.0442 -0.1054 0.0000,
      -0.0315 -0.0748 0.0551,
      -0.0442 -0.0442 0.0551,
      -0.0748 -0.0315 0.0551,
      -0.1054 -0.0442 0.0551,
      -0.1181 -0.0748 0.0551,
      -0.1054 -0.1054 0.0551,
      -0.0748 -0.1181 0.0551,
      -0.0442 -0.1054 0.0551 ] }
    coordIndex [
      0 1 9 8 -1,
      1 2 10 9 -1,
      2 3 11 10 -1,
      3 4 12 11 -1,
      4 5 13 12 -1,
      5 6 14 13 -1,
      6 7 15 14 -1,
      7 0 8 15 -1,
      7 6 5 4 3 2 1 0 -1,
      8 9 10 11 12 13 14 15 -1 ]
  }
}
Shape {
  appearance Appearance { material Material { diffuseColor 0.45 0.45 0.47 } }
  geometry IndexedFaceSet {
    coord Coordinate { point [
      0.0226 -0.0157 0.1969,
      0.0153 0.0068 0.1969,
      -0.0039 0.0208 0.1969,
      -0.0276 0.0208 0.1969,
      -0.0468 0.0068 0.1969,
      -0.0541 -0.0157 0.1969,
      -0.0468 -0.0383 0.1969,
      -0.0276 -0.0523 0.1969,
      -0.0039 -0.0523 0.1969,
      0.0153 -0.0383 0.1969,
      0.0226 -0.0157 0.2047,
      0.0153 0.0068 0.2047,
      -0.0039 0.0208 0.2047,
      -0.0276 0.0208 0.2047,
      -0.0468 0.0068 0.2047,
      -0.0541 -0.0157 0.2047,
      -0.0468 -0.0383 0.2047,
      -0.0276 -0.0523 0.2047,
      -0.0039 -0.0523 0.2047,
      0.0153 -0.0383 0.2047 ] }
    coordIndex [
      0 1 11 10 -1,
      1 2 12 11 -1,
      2 3 13 12 -1,
      3 4 14 13 -1,
      4 5 15 14 -1,
      5 6 16 15 -1,
      6 7 17 16 -1,
      7 8 18 17 -1,
      8 9 19 18 -1,
      9 0 10 19 -1,
      9 8 7 6 5 4 3 2 1 0 -1,
      10 11 12 13 14 15 16 17 18 19 -1 ]
  }
}
