0
SECTION
2
HEADER
9
$ACADVER
1
AC1009
9
$INSUNITS
70
4
9
$MEASUREMENT
70
1
9
$EXTMIN
10
0.0
20
0.0
30
0.0
9
$EXTMAX
10
47.0000
20
14.0000
30
0.0
0
ENDSEC
0
SECTION
2
TABLES
0
TABLE
2
LAYER
70
13
0
LAYER
2
BOARD_OUTLINE_REFERENCIA
70
0
62
8
6
CONTINUOUS
0
LAYER
2
KEEPOUT_ANTENA_MODULO
70
0
62
1
6
CONTINUOUS
0
LAYER
2
ZONA_MODULO_HOLYIOT
70
0
62
3
6
CONTINUOUS
0
LAYER
2
ZONA_ENERGIA
70
0
62
3
6
CONTINUOUS
0
LAYER
2
ZONA_CONECTOR_MAGNETICO
70
0
62
3
6
CONTINUOUS
0
LAYER
2
ZONA_CONVERSOR_ADS1220
70
0
62
3
6
CONTINUOUS
0
LAYER
2
ZONA_PONTE_PADS
70
0
62
3
6
CONTINUOUS
0
LAYER
2
ZONA_SENSORES
70
0
62
3
6
CONTINUOUS
0
LAYER
2
ZONA_TAG_CONNECT
70
0
62
3
6
CONTINUOUS
0
LAYER
2
SOMBRA_CELULA_MAX_0-0MM
70
0
62
5
6
CONTINUOUS
0
LAYER
2
SOMBRA_VERSO_MAX_1-0MM
70
0
62
6
6
CONTINUOUS
0
LAYER
2
SOMBRA_TAMPA_MAX_2-7MM
70
0
62
4
6
CONTINUOUS
0
LAYER
2
FUROS
70
0
62
1
6
CONTINUOUS
0
ENDTAB
0
ENDSEC
0
SECTION
2
ENTITIES
0
LINE
8
BOARD_OUTLINE_REFERENCIA
10
1.5000
20
0.0000
30
0.0
11
45.5000
21
0.0000
31
0.0
0
LINE
8
BOARD_OUTLINE_REFERENCIA
10
47.0000
20
1.5000
30
0.0
11
47.0000
21
12.5000
31
0.0
0
LINE
8
BOARD_OUTLINE_REFERENCIA
10
45.5000
20
14.0000
30
0.0
11
1.5000
21
14.0000
31
0.0
0
LINE
8
BOARD_OUTLINE_REFERENCIA
10
0.0000
20
12.5000
30
0.0
11
0.0000
21
1.5000
31
0.0
0
ARC
8
BOARD_OUTLINE_REFERENCIA
10
45.5000
20
1.5000
30
0.0
40
1.5000
50
270.0000
51
360.0000
0
ARC
8
BOARD_OUTLINE_REFERENCIA
10
45.5000
20
12.5000
30
0.0
40
1.5000
50
0.0000
51
90.0000
0
ARC
8
BOARD_OUTLINE_REFERENCIA
10
1.5000
20
12.5000
30
0.0
40
1.5000
50
90.0000
51
180.0000
0
ARC
8
BOARD_OUTLINE_REFERENCIA
10
1.5000
20
1.5000
30
0.0
40
1.5000
50
180.0000
51
270.0000
0
LINE
8
KEEPOUT_ANTENA_MODULO
10
42.7000
20
0.0000
30
0.0
11
47.0000
21
0.0000
31
0.0
0
LINE
8
KEEPOUT_ANTENA_MODULO
10
47.0000
20
0.0000
30
0.0
11
47.0000
21
14.0000
31
0.0
0
LINE
8
KEEPOUT_ANTENA_MODULO
10
47.0000
20
14.0000
30
0.0
11
42.7000
21
14.0000
31
0.0
0
LINE
8
KEEPOUT_ANTENA_MODULO
10
42.7000
20
14.0000
30
0.0
11
42.7000
21
0.0000
31
0.0
0
LINE
8
ZONA_MODULO_HOLYIOT
10
34.0000
20
1.5000
30
0.0
11
47.0000
21
1.5000
31
0.0
0
LINE
8
ZONA_MODULO_HOLYIOT
10
47.0000
20
1.5000
30
0.0
11
47.0000
21
12.5000
31
0.0
0
LINE
8
ZONA_MODULO_HOLYIOT
10
47.0000
20
12.5000
30
0.0
11
34.0000
21
12.5000
31
0.0
0
LINE
8
ZONA_MODULO_HOLYIOT
10
34.0000
20
12.5000
30
0.0
11
34.0000
21
1.5000
31
0.0
0
LINE
8
ZONA_ENERGIA
10
0.8000
20
0.8000
30
0.0
11
14.0000
21
0.8000
31
0.0
0
LINE
8
ZONA_ENERGIA
10
14.0000
20
0.8000
30
0.0
11
14.0000
21
13.2000
31
0.0
0
LINE
8
ZONA_ENERGIA
10
14.0000
20
13.2000
30
0.0
11
0.8000
21
13.2000
31
0.0
0
LINE
8
ZONA_ENERGIA
10
0.8000
20
13.2000
30
0.0
11
0.8000
21
0.8000
31
0.0
0
LINE
8
ZONA_CONECTOR_MAGNETICO
10
14.5000
20
7.7000
30
0.0
11
33.5000
21
7.7000
31
0.0
0
LINE
8
ZONA_CONECTOR_MAGNETICO
10
33.5000
20
7.7000
30
0.0
11
33.5000
21
13.4500
31
0.0
0
LINE
8
ZONA_CONECTOR_MAGNETICO
10
33.5000
20
13.4500
30
0.0
11
14.5000
21
13.4500
31
0.0
0
LINE
8
ZONA_CONECTOR_MAGNETICO
10
14.5000
20
13.4500
30
0.0
11
14.5000
21
7.7000
31
0.0
0
LINE
8
ZONA_CONVERSOR_ADS1220
10
18.0000
20
2.8000
30
0.0
11
28.0000
21
2.8000
31
0.0
0
LINE
8
ZONA_CONVERSOR_ADS1220
10
28.0000
20
2.8000
30
0.0
11
28.0000
21
7.9500
31
0.0
0
LINE
8
ZONA_CONVERSOR_ADS1220
10
28.0000
20
7.9500
30
0.0
11
18.0000
21
7.9500
31
0.0
0
LINE
8
ZONA_CONVERSOR_ADS1220
10
18.0000
20
7.9500
30
0.0
11
18.0000
21
2.8000
31
0.0
0
LINE
8
ZONA_PONTE_PADS
10
18.0000
20
0.0000
30
0.0
11
28.0000
21
0.0000
31
0.0
0
LINE
8
ZONA_PONTE_PADS
10
28.0000
20
0.0000
30
0.0
11
28.0000
21
2.8000
31
0.0
0
LINE
8
ZONA_PONTE_PADS
10
28.0000
20
2.8000
30
0.0
11
18.0000
21
2.8000
31
0.0
0
LINE
8
ZONA_PONTE_PADS
10
18.0000
20
2.8000
30
0.0
11
18.0000
21
0.0000
31
0.0
0
LINE
8
ZONA_SENSORES
10
28.0000
20
0.8000
30
0.0
11
33.5000
21
0.8000
31
0.0
0
LINE
8
ZONA_SENSORES
10
33.5000
20
0.8000
30
0.0
11
33.5000
21
7.9500
31
0.0
0
LINE
8
ZONA_SENSORES
10
33.5000
20
7.9500
30
0.0
11
28.0000
21
7.9500
31
0.0
0
LINE
8
ZONA_SENSORES
10
28.0000
20
7.9500
30
0.0
11
28.0000
21
0.8000
31
0.0
0
LINE
8
ZONA_TAG_CONNECT
10
14.5000
20
0.8000
30
0.0
11
22.0000
21
0.8000
31
0.0
0
LINE
8
ZONA_TAG_CONNECT
10
22.0000
20
0.8000
30
0.0
11
22.0000
21
7.9500
31
0.0
0
LINE
8
ZONA_TAG_CONNECT
10
22.0000
20
7.9500
30
0.0
11
14.5000
21
7.9500
31
0.0
0
LINE
8
ZONA_TAG_CONNECT
10
14.5000
20
7.9500
30
0.0
11
14.5000
21
0.8000
31
0.0
0
LINE
8
SOMBRA_CELULA_MAX_0-0MM
10
1.5000
20
2.0000
30
0.0
11
26.0000
21
2.0000
31
0.0
0
LINE
8
SOMBRA_CELULA_MAX_0-0MM
10
26.0000
20
2.0000
30
0.0
11
26.0000
21
14.0000
31
0.0
0
LINE
8
SOMBRA_CELULA_MAX_0-0MM
10
26.0000
20
14.0000
30
0.0
11
1.5000
21
14.0000
31
0.0
0
LINE
8
SOMBRA_CELULA_MAX_0-0MM
10
1.5000
20
14.0000
30
0.0
11
1.5000
21
2.0000
31
0.0
0
LINE
8
SOMBRA_VERSO_MAX_1-0MM
10
0.0000
20
0.0000
30
0.0
11
47.0000
21
0.0000
31
0.0
0
LINE
8
SOMBRA_VERSO_MAX_1-0MM
10
47.0000
20
0.0000
30
0.0
11
47.0000
21
14.0000
31
0.0
0
LINE
8
SOMBRA_VERSO_MAX_1-0MM
10
47.0000
20
14.0000
30
0.0
11
0.0000
21
14.0000
31
0.0
0
LINE
8
SOMBRA_VERSO_MAX_1-0MM
10
0.0000
20
14.0000
30
0.0
11
0.0000
21
0.0000
31
0.0
0
LINE
8
SOMBRA_TAMPA_MAX_2-7MM
10
0.0000
20
0.0000
30
0.0
11
47.0000
21
0.0000
31
0.0
0
LINE
8
SOMBRA_TAMPA_MAX_2-7MM
10
47.0000
20
0.0000
30
0.0
11
47.0000
21
14.0000
31
0.0
0
LINE
8
SOMBRA_TAMPA_MAX_2-7MM
10
47.0000
20
14.0000
30
0.0
11
0.0000
21
14.0000
31
0.0
0
LINE
8
SOMBRA_TAMPA_MAX_2-7MM
10
0.0000
20
14.0000
30
0.0
11
0.0000
21
0.0000
31
0.0
0
CIRCLE
8
FUROS
10
30.5000
20
7.0000
30
0.0
40
1.1000
0
ENDSEC
0
EOF
