0
SECTION
2
HEADER
9
$ACADVER
1
AC1009
9
$INSUNITS
70
4
9
$MEASUREMENT
70
1
9
$EXTMIN
10
0.0
20
0.0
30
0.0
9
$EXTMAX
10
60.0000
20
16.0000
30
0.0
0
ENDSEC
0
SECTION
2
TABLES
0
TABLE
2
LAYER
70
11
0
LAYER
2
BOARD_OUTLINE_REFERENCIA
70
0
62
8
6
CONTINUOUS
0
LAYER
2
KEEPOUT_ANTENA_MODULO
70
0
62
1
6
CONTINUOUS
0
LAYER
2
RECORTE_ANTENA_MODULO
70
0
62
2
6
CONTINUOUS
0
LAYER
2
ZONA_MODULO_ME54BS13
70
0
62
3
6
CONTINUOUS
0
LAYER
2
ZONA_ENERGIA
70
0
62
3
6
CONTINUOUS
0
LAYER
2
ZONA_CONECTOR_MAGNETICO
70
0
62
3
6
CONTINUOUS
0
LAYER
2
ZONA_CONVERSOR_ADS1220
70
0
62
3
6
CONTINUOUS
0
LAYER
2
ZONA_PONTE_PADS
70
0
62
3
6
CONTINUOUS
0
LAYER
2
ZONA_SENSORES
70
0
62
3
6
CONTINUOUS
0
LAYER
2
ZONA_TAG_CONNECT
70
0
62
3
6
CONTINUOUS
0
LAYER
2
SOMBRA_TAMPA_MAX_3-2MM
70
0
62
4
6
CONTINUOUS
0
ENDTAB
0
ENDSEC
0
SECTION
2
ENTITIES
0
LINE
8
BOARD_OUTLINE_REFERENCIA
10
1.5000
20
0.0000
30
0.0
11
58.5000
21
0.0000
31
0.0
0
LINE
8
BOARD_OUTLINE_REFERENCIA
10
60.0000
20
1.5000
30
0.0
11
60.0000
21
14.5000
31
0.0
0
LINE
8
BOARD_OUTLINE_REFERENCIA
10
58.5000
20
16.0000
30
0.0
11
1.5000
21
16.0000
31
0.0
0
LINE
8
BOARD_OUTLINE_REFERENCIA
10
0.0000
20
14.5000
30
0.0
11
0.0000
21
1.5000
31
0.0
0
ARC
8
BOARD_OUTLINE_REFERENCIA
10
58.5000
20
1.5000
30
0.0
40
1.5000
50
270.0000
51
360.0000
0
ARC
8
BOARD_OUTLINE_REFERENCIA
10
58.5000
20
14.5000
30
0.0
40
1.5000
50
0.0000
51
90.0000
0
ARC
8
BOARD_OUTLINE_REFERENCIA
10
1.5000
20
14.5000
30
0.0
40
1.5000
50
90.0000
51
180.0000
0
ARC
8
BOARD_OUTLINE_REFERENCIA
10
1.5000
20
1.5000
30
0.0
40
1.5000
50
180.0000
51
270.0000
0
LINE
8
KEEPOUT_ANTENA_MODULO
10
55.3000
20
0.0000
30
0.0
11
60.0000
21
0.0000
31
0.0
0
LINE
8
KEEPOUT_ANTENA_MODULO
10
60.0000
20
0.0000
30
0.0
11
60.0000
21
16.0000
31
0.0
0
LINE
8
KEEPOUT_ANTENA_MODULO
10
60.0000
20
16.0000
30
0.0
11
55.3000
21
16.0000
31
0.0
0
LINE
8
KEEPOUT_ANTENA_MODULO
10
55.3000
20
16.0000
30
0.0
11
55.3000
21
0.0000
31
0.0
0
LINE
8
RECORTE_ANTENA_MODULO
10
55.7000
20
2.9000
30
0.0
11
60.0000
21
2.9000
31
0.0
0
LINE
8
RECORTE_ANTENA_MODULO
10
60.0000
20
2.9000
30
0.0
11
60.0000
21
13.1000
31
0.0
0
LINE
8
RECORTE_ANTENA_MODULO
10
60.0000
20
13.1000
30
0.0
11
55.7000
21
13.1000
31
0.0
0
LINE
8
RECORTE_ANTENA_MODULO
10
55.7000
20
13.1000
30
0.0
11
55.7000
21
2.9000
31
0.0
0
LINE
8
ZONA_MODULO_ME54BS13
10
43.0000
20
1.7500
30
0.0
11
60.0000
21
1.7500
31
0.0
0
LINE
8
ZONA_MODULO_ME54BS13
10
60.0000
20
1.7500
30
0.0
11
60.0000
21
14.2500
31
0.0
0
LINE
8
ZONA_MODULO_ME54BS13
10
60.0000
20
14.2500
30
0.0
11
43.0000
21
14.2500
31
0.0
0
LINE
8
ZONA_MODULO_ME54BS13
10
43.0000
20
14.2500
30
0.0
11
43.0000
21
1.7500
31
0.0
0
LINE
8
ZONA_ENERGIA
10
0.8000
20
0.8000
30
0.0
11
23.0000
21
0.8000
31
0.0
0
LINE
8
ZONA_ENERGIA
10
23.0000
20
0.8000
30
0.0
11
23.0000
21
15.2000
31
0.0
0
LINE
8
ZONA_ENERGIA
10
23.0000
20
15.2000
30
0.0
11
0.8000
21
15.2000
31
0.0
0
LINE
8
ZONA_ENERGIA
10
0.8000
20
15.2000
30
0.0
11
0.8000
21
0.8000
31
0.0
0
LINE
8
ZONA_CONECTOR_MAGNETICO
10
23.5000
20
9.9500
30
0.0
11
42.5000
21
9.9500
31
0.0
0
LINE
8
ZONA_CONECTOR_MAGNETICO
10
42.5000
20
9.9500
30
0.0
11
42.5000
21
15.4500
31
0.0
0
LINE
8
ZONA_CONECTOR_MAGNETICO
10
42.5000
20
15.4500
30
0.0
11
23.5000
21
15.4500
31
0.0
0
LINE
8
ZONA_CONECTOR_MAGNETICO
10
23.5000
20
15.4500
30
0.0
11
23.5000
21
9.9500
31
0.0
0
LINE
8
ZONA_CONVERSOR_ADS1220
10
27.0000
20
2.8000
30
0.0
11
37.0000
21
2.8000
31
0.0
0
LINE
8
ZONA_CONVERSOR_ADS1220
10
37.0000
20
2.8000
30
0.0
11
37.0000
21
9.9500
31
0.0
0
LINE
8
ZONA_CONVERSOR_ADS1220
10
37.0000
20
9.9500
30
0.0
11
27.0000
21
9.9500
31
0.0
0
LINE
8
ZONA_CONVERSOR_ADS1220
10
27.0000
20
9.9500
30
0.0
11
27.0000
21
2.8000
31
0.0
0
LINE
8
ZONA_PONTE_PADS
10
27.0000
20
0.0000
30
0.0
11
37.0000
21
0.0000
31
0.0
0
LINE
8
ZONA_PONTE_PADS
10
37.0000
20
0.0000
30
0.0
11
37.0000
21
2.8000
31
0.0
0
LINE
8
ZONA_PONTE_PADS
10
37.0000
20
2.8000
30
0.0
11
27.0000
21
2.8000
31
0.0
0
LINE
8
ZONA_PONTE_PADS
10
27.0000
20
2.8000
30
0.0
11
27.0000
21
0.0000
31
0.0
0
LINE
8
ZONA_SENSORES
10
37.0000
20
0.8000
30
0.0
11
42.5000
21
0.8000
31
0.0
0
LINE
8
ZONA_SENSORES
10
42.5000
20
0.8000
30
0.0
11
42.5000
21
9.9500
31
0.0
0
LINE
8
ZONA_SENSORES
10
42.5000
20
9.9500
30
0.0
11
37.0000
21
9.9500
31
0.0
0
LINE
8
ZONA_SENSORES
10
37.0000
20
9.9500
30
0.0
11
37.0000
21
0.8000
31
0.0
0
LINE
8
ZONA_TAG_CONNECT
10
23.5000
20
0.8000
30
0.0
11
31.0000
21
0.8000
31
0.0
0
LINE
8
ZONA_TAG_CONNECT
10
31.0000
20
0.8000
30
0.0
11
31.0000
21
9.9500
31
0.0
0
LINE
8
ZONA_TAG_CONNECT
10
31.0000
20
9.9500
30
0.0
11
23.5000
21
9.9500
31
0.0
0
LINE
8
ZONA_TAG_CONNECT
10
23.5000
20
9.9500
30
0.0
11
23.5000
21
0.8000
31
0.0
0
LINE
8
SOMBRA_TAMPA_MAX_3-2MM
10
0.0000
20
0.0000
30
0.0
11
60.0000
21
0.0000
31
0.0
0
LINE
8
SOMBRA_TAMPA_MAX_3-2MM
10
60.0000
20
0.0000
30
0.0
11
60.0000
21
16.0000
31
0.0
0
LINE
8
SOMBRA_TAMPA_MAX_3-2MM
10
60.0000
20
16.0000
30
0.0
11
0.0000
21
16.0000
31
0.0
0
LINE
8
SOMBRA_TAMPA_MAX_3-2MM
10
0.0000
20
16.0000
30
0.0
11
0.0000
21
0.0000
31
0.0
0
ENDSEC
0
EOF
